<svg xmlns="http://www.w3.org/2000/svg" xmlns:xlink="http://www.w3.org/1999/xlink" width="1080" zoomAndPan="magnify" viewBox="0 0 810 817.92" height="1080" preserveAspectRatio="xMidYMid meet" version="1.0"><defs><clipPath id="50b1dc1123"><path d="M 424 294 L 740.78125 294 L 740.78125 728 L 424 728 Z M 424 294 " clip-rule="nonzero"></path></clipPath><clipPath id="754cde5b4e"><path d="M 68.847656 294 L 384 294 L 384 728 L 68.847656 728 Z M 68.847656 294 " clip-rule="nonzero"></path></clipPath></defs><g clip-path="url(#50b1dc1123)"><path fill="#ffffff" d="M 689.054688 308.230469 L 642.5 393.578125 L 638.246094 391.265625 C 637.074219 390.628906 635.871094 390.054688 634.636719 389.539062 C 633.40625 389.023438 632.152344 388.566406 630.878906 388.171875 C 629.601562 387.78125 628.3125 387.449219 627.003906 387.179688 C 625.695312 386.914062 624.375 386.710938 623.050781 386.570312 C 621.722656 386.433594 620.390625 386.359375 619.054688 386.347656 C 617.71875 386.339844 616.386719 386.394531 615.058594 386.515625 C 613.726562 386.636719 612.40625 386.824219 611.097656 387.074219 C 609.785156 387.324219 608.488281 387.636719 607.207031 388.015625 C 605.925781 388.390625 604.667969 388.828125 603.429688 389.328125 C 602.191406 389.828125 600.980469 390.386719 599.796875 391.007812 C 598.613281 391.625 597.464844 392.296875 596.347656 393.027344 C 595.230469 393.757812 594.148438 394.542969 593.109375 395.378906 C 592.066406 396.214844 591.070312 397.097656 590.117188 398.03125 C 589.160156 398.964844 588.253906 399.941406 587.394531 400.964844 C 586.535156 401.988281 585.730469 403.046875 584.972656 404.148438 C 584.21875 405.25 583.519531 406.386719 582.875 407.554688 L 564.125 441.929688 C 554.753906 461.457031 533.925781 463.390625 517.195312 472.8125 C 513.652344 474.742188 510.21875 476.855469 506.894531 479.144531 C 503.570312 481.433594 500.375 483.886719 497.304688 486.507812 C 494.238281 489.125 491.3125 491.898438 488.53125 494.824219 C 485.75 497.746094 483.125 500.804688 480.660156 504.003906 C 478.199219 507.199219 475.90625 510.511719 473.785156 513.945312 C 471.664062 517.378906 469.726562 520.914062 467.972656 524.550781 C 466.21875 528.183594 464.660156 531.898438 463.292969 535.695312 C 461.921875 539.492188 460.753906 543.347656 459.785156 547.265625 C 454.285156 569.640625 451.074219 592.339844 450.15625 615.363281 L 424.867188 661.734375 L 440.8125 670.441406 L 466.921875 622.574219 C 472.542969 561.855469 478.371094 501.464844 545.992188 480 C 572.746094 473.066406 586.484375 438.21875 598.820312 416.257812 C 599.242188 415.53125 599.699219 414.828125 600.199219 414.148438 C 600.695312 413.46875 601.226562 412.820312 601.792969 412.195312 C 602.359375 411.574219 602.960938 410.984375 603.589844 410.425781 C 604.21875 409.867188 604.878906 409.34375 605.5625 408.859375 C 606.25 408.371094 606.960938 407.921875 607.695312 407.507812 C 608.429688 407.097656 609.183594 406.726562 609.957031 406.394531 C 610.730469 406.066406 611.519531 405.777344 612.324219 405.53125 C 613.128906 405.285156 613.945312 405.082031 614.773438 404.921875 C 615.601562 404.761719 616.433594 404.648438 617.269531 404.578125 C 618.109375 404.511719 618.949219 404.484375 619.792969 404.503906 C 620.632812 404.527344 621.472656 404.589844 622.304688 404.699219 C 623.140625 404.808594 623.964844 404.964844 624.785156 405.164062 C 625.601562 405.359375 626.40625 405.601562 627.199219 405.886719 C 627.992188 406.171875 628.765625 406.5 629.523438 406.867188 C 630.28125 407.234375 631.015625 407.640625 631.730469 408.085938 C 632.445312 408.53125 633.132812 409.015625 633.792969 409.535156 L 587.664062 494.097656 C 587.167969 495.027344 586.523438 495.839844 585.734375 496.535156 L 550.246094 528.257812 L 562.359375 541.800781 L 597.847656 510.082031 C 600.203125 507.980469 602.132812 505.542969 603.632812 502.769531 L 705 316.9375 C 705.285156 316.441406 705.609375 315.976562 705.980469 315.542969 C 706.347656 315.105469 706.753906 314.707031 707.195312 314.347656 C 707.640625 313.988281 708.109375 313.667969 708.613281 313.394531 C 709.113281 313.121094 709.636719 312.898438 710.179688 312.71875 C 710.722656 312.542969 711.273438 312.417969 711.839844 312.34375 C 712.40625 312.269531 712.976562 312.246094 713.546875 312.277344 C 714.117188 312.308594 714.679688 312.390625 715.234375 312.527344 C 715.789062 312.660156 716.324219 312.84375 716.847656 313.078125 C 717.367188 313.3125 717.863281 313.59375 718.332031 313.917969 C 718.800781 314.242188 719.234375 314.609375 719.636719 315.015625 C 720.039062 315.421875 720.398438 315.859375 720.71875 316.332031 C 721.039062 316.804688 721.3125 317.304688 721.539062 317.828125 C 721.769531 318.351562 721.945312 318.890625 722.074219 319.445312 C 722.203125 320.003906 722.28125 320.566406 722.304688 321.136719 C 722.328125 321.707031 722.300781 322.273438 722.21875 322.839844 C 722.136719 323.40625 722.007812 323.957031 721.824219 324.5 L 668.648438 471.800781 C 665.507812 480.515625 660.851562 488.332031 654.679688 495.238281 L 571.941406 588.035156 C 569.089844 591.234375 566.472656 594.613281 564.089844 598.175781 C 561.707031 601.734375 559.582031 605.445312 557.714844 609.300781 C 555.847656 613.160156 554.253906 617.125 552.9375 621.203125 C 551.621094 625.28125 550.597656 629.429688 549.855469 633.652344 L 533.933594 724.539062 L 551.820312 727.671875 L 567.742188 636.792969 C 568.941406 629.976562 571.046875 623.449219 574.066406 617.222656 C 577.082031 610.992188 580.894531 605.292969 585.5 600.125 L 668.234375 507.335938 C 672.066406 503.046875 675.453125 498.433594 678.394531 493.496094 C 681.339844 488.558594 683.785156 483.382812 685.730469 477.972656 L 738.917969 330.660156 C 739.195312 329.859375 739.433594 329.046875 739.632812 328.226562 C 739.835938 327.402344 740 326.570312 740.125 325.734375 C 740.25 324.894531 740.335938 324.054688 740.382812 323.207031 C 740.425781 322.359375 740.433594 321.515625 740.402344 320.667969 C 740.371094 319.820312 740.300781 318.976562 740.191406 318.136719 C 740.082031 317.296875 739.933594 316.464844 739.746094 315.636719 C 739.558594 314.808594 739.332031 313.996094 739.070312 313.1875 C 738.808594 312.382812 738.507812 311.589844 738.171875 310.8125 C 737.835938 310.035156 737.464844 309.273438 737.058594 308.53125 C 736.652344 307.789062 736.214844 307.0625 735.738281 306.363281 C 735.265625 305.660156 734.761719 304.980469 734.226562 304.324219 C 733.6875 303.667969 733.125 303.039062 732.527344 302.433594 C 731.933594 301.828125 731.3125 301.253906 730.664062 300.707031 C 730.015625 300.164062 729.34375 299.648438 728.648438 299.164062 C 727.953125 298.679688 727.238281 298.230469 726.5 297.8125 C 725.761719 297.394531 725.007812 297.011719 724.234375 296.664062 C 723.460938 296.316406 722.675781 296.003906 721.871094 295.730469 C 721.070312 295.457031 720.257812 295.21875 719.433594 295.019531 C 718.613281 294.820312 717.78125 294.660156 716.941406 294.535156 C 716.101562 294.414062 715.261719 294.332031 714.414062 294.285156 C 713.570312 294.242188 712.722656 294.234375 711.875 294.269531 C 711.027344 294.304688 710.183594 294.378906 709.34375 294.488281 C 708.503906 294.601562 707.671875 294.75 706.847656 294.941406 C 706.019531 295.128906 705.207031 295.355469 704.398438 295.621094 C 703.59375 295.886719 702.804688 296.1875 702.027344 296.527344 C 701.25 296.863281 700.492188 297.238281 699.746094 297.644531 C 699.003906 298.054688 698.285156 298.496094 697.582031 298.96875 C 696.878906 299.445312 696.203125 299.953125 695.546875 300.492188 C 694.894531 301.027344 694.265625 301.59375 693.660156 302.191406 C 693.058594 302.789062 692.488281 303.410156 691.941406 304.058594 C 691.398438 304.710938 690.882812 305.382812 690.402344 306.078125 C 689.921875 306.777344 689.472656 307.492188 689.054688 308.230469 Z M 689.054688 308.230469 " fill-opacity="1" fill-rule="nonzero"></path></g><g clip-path="url(#754cde5b4e)"><path fill="#ffffff" d="M 123.046875 477.976562 C 124.992188 483.382812 127.4375 488.558594 130.382812 493.496094 C 133.324219 498.433594 136.710938 503.042969 140.542969 507.328125 L 223.277344 600.125 C 227.882812 605.292969 231.695312 610.988281 234.710938 617.21875 C 237.730469 623.449219 239.835938 629.96875 241.035156 636.785156 L 256.957031 727.671875 L 274.84375 724.539062 L 258.921875 633.644531 C 258.183594 629.425781 257.15625 625.277344 255.839844 621.199219 C 254.523438 617.121094 252.929688 613.15625 251.0625 609.300781 C 249.195312 605.441406 247.070312 601.734375 244.6875 598.171875 C 242.304688 594.613281 239.6875 591.234375 236.835938 588.035156 L 154.101562 495.234375 C 147.925781 488.328125 143.269531 480.515625 140.128906 471.800781 L 86.964844 324.511719 C 86.78125 323.96875 86.648438 323.417969 86.566406 322.851562 C 86.484375 322.285156 86.453125 321.71875 86.476562 321.144531 C 86.5 320.574219 86.574219 320.011719 86.703125 319.453125 C 86.828125 318.898438 87.007812 318.355469 87.234375 317.832031 C 87.460938 317.308594 87.734375 316.808594 88.054688 316.335938 C 88.375 315.863281 88.734375 315.421875 89.136719 315.015625 C 89.535156 314.609375 89.972656 314.242188 90.441406 313.914062 C 90.910156 313.589844 91.40625 313.308594 91.925781 313.074219 C 92.449219 312.839844 92.984375 312.65625 93.539062 312.519531 C 94.097656 312.382812 94.660156 312.300781 95.230469 312.269531 C 95.800781 312.238281 96.367188 312.261719 96.933594 312.335938 C 97.5 312.410156 98.054688 312.535156 98.597656 312.714844 C 99.144531 312.890625 99.664062 313.117188 100.167969 313.390625 C 100.667969 313.664062 101.140625 313.980469 101.582031 314.34375 C 102.023438 314.703125 102.429688 315.105469 102.800781 315.539062 C 103.167969 315.976562 103.496094 316.441406 103.777344 316.941406 L 205.121094 502.734375 C 206.628906 505.519531 208.566406 507.96875 210.929688 510.082031 L 246.417969 541.800781 L 258.53125 528.257812 L 223.042969 496.535156 C 222.242188 495.828125 221.59375 495.003906 221.089844 494.0625 L 174.980469 409.53125 C 175.640625 409.011719 176.332031 408.53125 177.042969 408.082031 C 177.757812 407.636719 178.492188 407.230469 179.25 406.863281 C 180.007812 406.496094 180.78125 406.171875 181.574219 405.886719 C 182.367188 405.601562 183.171875 405.359375 183.992188 405.160156 C 184.808594 404.964844 185.636719 404.808594 186.46875 404.699219 C 187.304688 404.589844 188.144531 404.523438 188.984375 404.503906 C 189.824219 404.484375 190.664062 404.507812 191.503906 404.578125 C 192.34375 404.648438 193.175781 404.761719 194.003906 404.921875 C 194.828125 405.082031 195.644531 405.285156 196.449219 405.53125 C 197.253906 405.777344 198.046875 406.066406 198.820312 406.394531 C 199.59375 406.726562 200.347656 407.097656 201.082031 407.511719 C 201.816406 407.921875 202.527344 408.371094 203.210938 408.859375 C 203.898438 409.347656 204.558594 409.871094 205.1875 410.425781 C 205.816406 410.984375 206.414062 411.574219 206.984375 412.199219 C 207.550781 412.820312 208.082031 413.46875 208.578125 414.148438 C 209.078125 414.828125 209.535156 415.53125 209.957031 416.261719 L 228.707031 450.625 C 230.511719 454.023438 232.613281 457.230469 235.011719 460.238281 C 237.410156 463.246094 240.070312 466.007812 242.984375 468.519531 C 245.898438 471.03125 249.023438 473.253906 252.351562 475.183594 C 255.679688 477.113281 259.160156 478.71875 262.789062 479.996094 C 330.273438 501.394531 336.335938 561.839844 341.820312 622.515625 L 367.964844 670.441406 L 383.914062 661.734375 L 358.621094 615.371094 C 357.703125 592.339844 354.496094 569.636719 348.992188 547.253906 C 348.023438 543.335938 346.851562 539.480469 345.484375 535.683594 C 344.113281 531.886719 342.554688 528.167969 340.796875 524.535156 C 339.042969 520.898438 337.105469 517.367188 334.984375 513.933594 C 332.863281 510.5 330.570312 507.183594 328.105469 503.988281 C 325.640625 500.792969 323.015625 497.730469 320.234375 494.808594 C 317.449219 491.886719 314.523438 489.113281 311.453125 486.492188 C 308.382812 483.871094 305.1875 481.417969 301.863281 479.128906 C 298.535156 476.84375 295.101562 474.730469 291.558594 472.800781 C 274.851562 463.398438 254.007812 461.441406 244.65625 441.925781 L 225.90625 407.554688 C 225.203125 406.300781 224.4375 405.089844 223.605469 403.917969 C 222.777344 402.746094 221.890625 401.617188 220.945312 400.539062 C 220 399.457031 219 398.429688 217.949219 397.453125 C 216.894531 396.476562 215.796875 395.554688 214.648438 394.691406 C 213.5 393.828125 212.3125 393.027344 211.078125 392.289062 C 209.847656 391.550781 208.582031 390.875 207.28125 390.265625 C 205.980469 389.660156 204.652344 389.121094 203.296875 388.648438 C 201.941406 388.179688 200.5625 387.78125 199.164062 387.453125 C 197.765625 387.125 196.355469 386.871094 194.929688 386.6875 C 193.507812 386.507812 192.078125 386.398438 190.640625 386.367188 C 189.207031 386.332031 187.773438 386.375 186.339844 386.492188 C 184.910156 386.605469 183.488281 386.796875 182.078125 387.058594 C 180.664062 387.320312 179.269531 387.65625 177.894531 388.0625 C 176.515625 388.472656 175.164062 388.949219 173.835938 389.496094 C 172.511719 390.042969 171.214844 390.660156 169.953125 391.339844 C 168.6875 392.023438 167.464844 392.769531 166.277344 393.578125 L 119.722656 308.230469 C 119.308594 307.492188 118.859375 306.777344 118.375 306.078125 C 117.894531 305.382812 117.378906 304.710938 116.835938 304.0625 C 116.289062 303.410156 115.71875 302.789062 115.117188 302.191406 C 114.511719 301.597656 113.882812 301.03125 113.230469 300.492188 C 112.574219 299.953125 111.898438 299.445312 111.195312 298.972656 C 110.492188 298.496094 109.769531 298.054688 109.027344 297.648438 C 108.285156 297.238281 107.527344 296.867188 106.75 296.527344 C 105.972656 296.191406 105.179688 295.890625 104.375 295.625 C 103.570312 295.359375 102.753906 295.132812 101.929688 294.945312 C 101.101562 294.753906 100.269531 294.605469 99.429688 294.492188 C 98.589844 294.382812 97.746094 294.308594 96.898438 294.273438 C 96.054688 294.242188 95.207031 294.246094 94.359375 294.292969 C 93.515625 294.335938 92.671875 294.417969 91.832031 294.542969 C 90.996094 294.664062 90.164062 294.824219 89.339844 295.027344 C 88.515625 295.226562 87.703125 295.460938 86.902344 295.738281 C 86.101562 296.011719 85.316406 296.324219 84.542969 296.671875 C 83.769531 297.019531 83.015625 297.402344 82.277344 297.820312 C 81.539062 298.238281 80.824219 298.6875 80.128906 299.171875 C 79.433594 299.65625 78.761719 300.171875 78.113281 300.71875 C 77.464844 301.265625 76.84375 301.839844 76.25 302.445312 C 75.65625 303.046875 75.089844 303.679688 74.554688 304.335938 C 74.019531 304.992188 73.511719 305.671875 73.039062 306.375 C 72.566406 307.078125 72.128906 307.800781 71.722656 308.542969 C 71.316406 309.289062 70.945312 310.046875 70.609375 310.828125 C 70.273438 311.605469 69.972656 312.394531 69.710938 313.203125 C 69.449219 314.007812 69.226562 314.824219 69.039062 315.652344 C 68.851562 316.476562 68.703125 317.308594 68.59375 318.152344 C 68.484375 318.992188 68.414062 319.835938 68.382812 320.679688 C 68.351562 321.527344 68.359375 322.375 68.40625 323.222656 C 68.453125 324.066406 68.539062 324.910156 68.664062 325.746094 C 68.789062 326.585938 68.953125 327.414062 69.15625 328.238281 C 69.355469 329.0625 69.597656 329.875 69.875 330.675781 Z M 123.046875 477.976562 " fill-opacity="1" fill-rule="nonzero"></path></g><path fill="#ffffff" d="M 473.875 377.695312 L 485.398438 391.75 C 490.480469 387.554688 495.339844 383.117188 499.972656 378.429688 C 503.511719 374.820312 506.890625 371.066406 510.105469 367.164062 C 513.324219 363.265625 516.367188 359.234375 519.238281 355.074219 C 522.109375 350.910156 524.796875 346.636719 527.300781 342.242188 C 529.800781 337.851562 532.113281 333.359375 534.230469 328.769531 C 536.347656 324.179688 538.261719 319.503906 539.980469 314.75 C 541.695312 309.996094 543.203125 305.175781 544.503906 300.289062 C 545.808594 295.402344 546.898438 290.472656 547.773438 285.492188 C 548.652344 280.515625 549.316406 275.507812 549.761719 270.472656 L 549.761719 137.839844 L 404.390625 81.335938 L 259.015625 137.839844 L 259.050781 271.277344 C 258.347656 295.117188 281.429688 361.207031 323.382812 391.746094 L 334.902344 377.695312 C 330.921875 374.351562 327.109375 370.824219 323.460938 367.117188 C 319.8125 363.410156 316.347656 359.539062 313.066406 355.503906 C 309.785156 351.46875 306.699219 347.289062 303.8125 342.964844 C 300.929688 338.636719 298.253906 334.183594 295.789062 329.605469 C 293.324219 325.027344 291.078125 320.339844 289.058594 315.550781 C 287.035156 310.757812 285.246094 305.882812 283.683594 300.921875 C 282.125 295.960938 280.800781 290.933594 279.71875 285.847656 C 278.632812 280.761719 277.789062 275.636719 277.191406 270.472656 L 277.1875 150.273438 L 404.390625 100.832031 L 531.59375 150.273438 L 531.628906 269.667969 C 531.058594 274.871094 530.238281 280.035156 529.175781 285.160156 C 528.113281 290.285156 526.804688 295.347656 525.257812 300.347656 C 523.710938 305.347656 521.929688 310.261719 519.914062 315.089844 C 517.894531 319.921875 515.652344 324.644531 513.1875 329.261719 C 510.71875 333.875 508.035156 338.363281 505.140625 342.722656 C 502.246094 347.082031 499.148438 351.296875 495.847656 355.359375 C 492.550781 359.421875 489.066406 363.320312 485.394531 367.050781 C 481.726562 370.78125 477.886719 374.332031 473.875 377.695312 Z M 473.875 377.695312 " fill-opacity="1" fill-rule="nonzero"></path><path fill="#ffffff" d="M 337.445312 472.972656 L 471.332031 472.972656 C 471.929688 472.972656 472.519531 472.914062 473.105469 472.796875 C 473.691406 472.679688 474.257812 472.507812 474.808594 472.277344 C 475.359375 472.050781 475.882812 471.769531 476.378906 471.4375 C 476.875 471.109375 477.335938 470.730469 477.757812 470.308594 C 478.179688 469.886719 478.554688 469.429688 478.886719 468.933594 C 479.21875 468.4375 479.496094 467.914062 479.726562 467.363281 C 479.953125 466.8125 480.125 466.242188 480.242188 465.65625 C 480.359375 465.074219 480.417969 464.480469 480.417969 463.886719 L 480.417969 436.039062 C 480.417969 435.222656 480.308594 434.425781 480.09375 433.640625 C 479.878906 432.851562 479.5625 432.109375 479.148438 431.410156 C 478.734375 430.707031 478.234375 430.074219 477.648438 429.507812 C 477.0625 428.941406 476.410156 428.464844 475.699219 428.070312 L 435.277344 405.902344 L 435.277344 400.8125 C 437.070312 399.550781 438.78125 398.191406 440.410156 396.726562 C 442.042969 395.261719 443.578125 393.707031 445.023438 392.058594 C 446.46875 390.410156 447.808594 388.683594 449.042969 386.875 C 450.28125 385.066406 451.40625 383.191406 452.417969 381.246094 C 453.429688 379.304688 454.324219 377.308594 455.097656 375.257812 C 455.871094 373.207031 456.519531 371.117188 457.042969 368.992188 C 457.566406 366.863281 457.957031 364.710938 458.222656 362.539062 C 458.488281 360.363281 458.625 358.179688 458.628906 355.988281 L 458.628906 337.800781 C 456.367188 266.542969 352.425781 266.492188 350.152344 337.800781 L 350.152344 355.988281 C 350.15625 358.179688 350.289062 360.363281 350.554688 362.539062 C 350.820312 364.710938 351.214844 366.863281 351.738281 368.992188 C 352.261719 371.117188 352.90625 373.207031 353.679688 375.257812 C 354.453125 377.308594 355.347656 379.304688 356.359375 381.246094 C 357.371094 383.191406 358.496094 385.066406 359.734375 386.875 C 360.96875 388.683594 362.3125 390.410156 363.753906 392.058594 C 365.199219 393.707031 366.734375 395.261719 368.367188 396.726562 C 369.996094 398.191406 371.707031 399.550781 373.503906 400.808594 L 373.503906 405.902344 L 333.082031 428.070312 C 332.367188 428.464844 331.714844 428.941406 331.128906 429.507812 C 330.546875 430.074219 330.046875 430.707031 329.628906 431.410156 C 329.214844 432.109375 328.898438 432.851562 328.683594 433.640625 C 328.46875 434.425781 328.359375 435.222656 328.359375 436.039062 L 328.359375 463.886719 C 328.359375 464.480469 328.417969 465.074219 328.535156 465.65625 C 328.652344 466.242188 328.824219 466.8125 329.054688 467.363281 C 329.28125 467.914062 329.5625 468.4375 329.890625 468.933594 C 330.222656 469.429688 330.601562 469.886719 331.023438 470.308594 C 331.445312 470.730469 331.902344 471.109375 332.398438 471.4375 C 332.894531 471.769531 333.417969 472.050781 333.96875 472.277344 C 334.519531 472.507812 335.089844 472.679688 335.671875 472.796875 C 336.257812 472.914062 336.847656 472.972656 337.445312 472.972656 Z M 346.53125 441.421875 L 386.953125 419.253906 C 387.667969 418.863281 388.316406 418.382812 388.902344 417.816406 C 389.488281 417.25 389.988281 416.617188 390.402344 415.914062 C 390.820312 415.214844 391.132812 414.472656 391.347656 413.6875 C 391.5625 412.898438 391.671875 412.101562 391.671875 411.285156 C 390.996094 405.226562 394.265625 391.160156 387.046875 387.898438 C 385.636719 387.105469 384.285156 386.222656 382.992188 385.253906 C 381.695312 384.28125 380.472656 383.226562 379.316406 382.09375 C 378.164062 380.960938 377.089844 379.757812 376.09375 378.480469 C 375.097656 377.207031 374.191406 375.871094 373.371094 374.472656 C 372.550781 373.078125 371.828125 371.636719 371.199219 370.144531 C 370.574219 368.652344 370.046875 367.128906 369.617188 365.566406 C 369.191406 364.007812 368.871094 362.425781 368.652344 360.820312 C 368.4375 359.21875 368.324219 357.605469 368.320312 355.988281 L 368.320312 337.800781 C 368.34375 336.632812 368.421875 335.472656 368.558594 334.3125 C 368.695312 333.152344 368.886719 332.003906 369.132812 330.863281 C 369.378906 329.722656 369.679688 328.597656 370.035156 327.484375 C 370.394531 326.375 370.800781 325.285156 371.265625 324.210938 C 371.726562 323.140625 372.238281 322.09375 372.804688 321.074219 C 373.367188 320.050781 373.980469 319.058594 374.640625 318.097656 C 375.300781 317.132812 376.003906 316.207031 376.753906 315.3125 C 377.503906 314.417969 378.296875 313.5625 379.128906 312.746094 C 379.960938 311.929688 380.832031 311.15625 381.742188 310.421875 C 382.648438 309.6875 383.589844 309.003906 384.566406 308.359375 C 385.539062 307.71875 386.542969 307.128906 387.578125 306.582031 C 388.609375 306.039062 389.664062 305.546875 390.746094 305.105469 C 391.824219 304.664062 392.925781 304.277344 394.042969 303.941406 C 395.160156 303.609375 396.292969 303.328125 397.4375 303.101562 C 398.582031 302.878906 399.734375 302.710938 400.898438 302.597656 C 402.058594 302.484375 403.222656 302.425781 404.390625 302.425781 C 405.554688 302.425781 406.71875 302.484375 407.882812 302.597656 C 409.042969 302.710938 410.195312 302.878906 411.339844 303.101562 C 412.484375 303.328125 413.617188 303.609375 414.734375 303.941406 C 415.851562 304.277344 416.953125 304.664062 418.03125 305.105469 C 419.113281 305.546875 420.167969 306.039062 421.203125 306.585938 C 422.234375 307.128906 423.238281 307.71875 424.210938 308.363281 C 425.1875 309.003906 426.128906 309.691406 427.039062 310.421875 C 427.945312 311.15625 428.816406 311.929688 429.648438 312.746094 C 430.480469 313.5625 431.273438 314.417969 432.023438 315.3125 C 432.773438 316.207031 433.480469 317.136719 434.140625 318.097656 C 434.800781 319.058594 435.410156 320.050781 435.976562 321.074219 C 436.539062 322.09375 437.050781 323.140625 437.511719 324.210938 C 437.976562 325.285156 438.386719 326.375 438.742188 327.488281 C 439.097656 328.597656 439.398438 329.722656 439.648438 330.863281 C 439.894531 332.003906 440.085938 333.152344 440.21875 334.3125 C 440.355469 335.472656 440.433594 336.636719 440.457031 337.800781 L 440.457031 355.988281 C 440.453125 357.605469 440.34375 359.21875 440.125 360.820312 C 439.90625 362.421875 439.585938 364.003906 439.160156 365.566406 C 438.734375 367.128906 438.207031 368.652344 437.578125 370.144531 C 436.949219 371.636719 436.226562 373.078125 435.40625 374.472656 C 434.589844 375.871094 433.679688 377.207031 432.683594 378.480469 C 431.691406 379.757812 430.613281 380.960938 429.460938 382.09375 C 428.304688 383.226562 427.082031 384.28125 425.789062 385.25 C 424.492188 386.222656 423.140625 387.105469 421.730469 387.898438 C 421.03125 388.292969 420.390625 388.773438 419.820312 389.339844 C 419.246094 389.90625 418.753906 390.535156 418.347656 391.230469 C 417.941406 391.925781 417.632812 392.660156 417.421875 393.4375 C 417.210938 394.214844 417.105469 395.007812 417.105469 395.8125 C 417.816406 402.234375 414.429688 415.855469 421.824219 419.253906 L 462.246094 441.421875 L 462.246094 454.800781 L 346.53125 454.800781 Z M 346.53125 441.421875 " fill-opacity="1" fill-rule="nonzero"></path><path fill="#ffffff" d="M 423.550781 259.488281 L 423.550781 217.539062 L 465.515625 217.539062 L 465.515625 179.203125 L 423.550781 179.203125 L 423.550781 137.253906 L 385.226562 137.253906 L 385.226562 179.203125 L 343.265625 179.203125 L 343.265625 217.539062 L 385.226562 217.539062 L 385.226562 259.488281 Z M 423.550781 259.488281 " fill-opacity="1" fill-rule="nonzero"></path></svg>