<svg xmlns="http://www.w3.org/2000/svg" xmlns:xlink="http://www.w3.org/1999/xlink" width="1080" zoomAndPan="magnify" viewBox="0 0 810 817.92" height="1080" preserveAspectRatio="xMidYMid meet" version="1.0"><defs><clipPath id="b3248cff3c"><path d="M 207 404 L 558 404 L 558 717.121094 L 207 717.121094 Z M 207 404 " clip-rule="nonzero"></path></clipPath><clipPath id="817d6098ac"><path d="M 386 92.433594 L 764 92.433594 L 764 596 L 386 596 Z M 386 92.433594 " clip-rule="nonzero"></path></clipPath></defs><g clip-path="url(#b3248cff3c)"><path fill="#ffffff" d="M 519.144531 611.164062 C 504.796875 642.226562 483.140625 667.488281 458.152344 682.3125 C 434.496094 696.355469 410.78125 699.179688 391.382812 690.199219 C 372.015625 681.265625 358.777344 661.402344 354.117188 634.273438 C 349.179688 605.636719 354.375 572.757812 368.703125 541.703125 C 383.050781 510.640625 404.707031 485.375 429.699219 470.550781 C 444.292969 461.902344 458.894531 457.523438 472.496094 457.523438 C 480.953125 457.523438 489.023438 459.222656 496.46875 462.652344 C 537.933594 481.804688 548.105469 548.429688 519.144531 611.164062 Z M 302.144531 510.96875 C 331.125 448.238281 388.402344 412.792969 429.914062 431.914062 L 446.222656 439.453125 C 436.988281 442.144531 427.671875 446.070312 418.4375 451.546875 C 389.628906 468.625 364.835938 497.351562 348.652344 532.433594 C 332.445312 567.519531 326.644531 605.019531 332.332031 638.023438 C 334.148438 648.597656 337.191406 658.214844 341.121094 666.992188 L 324.832031 659.480469 C 283.363281 640.320312 273.175781 573.703125 302.144531 510.96875 Z M 230.847656 474.726562 C 230.671875 474.34375 230.445312 473.667969 230.269531 472.714844 C 229.5625 468.554688 230.539062 463.042969 232.886719 457.972656 C 236.640625 449.839844 241.914062 446.3125 244.039062 445.601562 L 297.164062 474.667969 C 291.609375 483.074219 286.527344 492.085938 282.082031 501.699219 C 281.957031 501.976562 281.859375 502.253906 281.734375 502.53125 Z M 505.730469 442.597656 C 505.386719 442.433594 439.167969 411.863281 439.167969 411.863281 C 398.703125 393.15625 347.546875 412.953125 310.589844 456.8125 L 252.503906 425.0625 C 239.609375 419.070312 221.449219 430.03125 212.832031 448.6875 C 208.558594 457.921875 207.015625 467.769531 208.488281 476.457031 C 209.964844 485.015625 214.253906 491.332031 219.890625 493.898438 L 273.675781 523.304688 C 251.417969 590.464844 268.128906 657.636719 315.554688 679.554688 C 315.554688 679.554688 381.617188 710.035156 382.113281 710.265625 C 392.5625 715.09375 403.757812 717.484375 415.382812 717.484375 C 432.882812 717.484375 451.316406 712.054688 469.414062 701.316406 C 498.222656 684.238281 523.015625 655.511719 539.199219 620.429688 C 573.273438 546.625 558.269531 466.851562 505.730469 442.597656 " fill-opacity="1" fill-rule="nonzero"></path></g><path fill="#ffffff" d="M 239.851562 574.457031 C 219.664062 583.476562 200.359375 584.269531 183.996094 576.703125 C 160.007812 565.632812 145.402344 537.300781 144.945312 500.902344 C 144.867188 494.847656 139.9375 489.992188 133.890625 489.992188 C 133.847656 489.992188 133.804688 489.992188 133.746094 489.992188 C 127.648438 490.074219 122.765625 495.082031 122.84375 501.1875 C 123.089844 520.796875 127.082031 538.464844 133.929688 553.574219 L 117.433594 545.96875 C 98.066406 537.03125 84.828125 517.160156 80.148438 490.035156 C 75.230469 461.398438 80.410156 428.523438 94.753906 397.464844 C 109.101562 366.410156 130.757812 341.140625 155.75 326.320312 C 179.433594 312.304688 203.121094 309.484375 222.496094 318.417969 C 222.730469 318.527344 222.945312 318.621094 223.175781 318.707031 L 239.183594 326.105469 C 201.117188 337.164062 163.449219 370.851562 141.242188 418.9375 C 134.742188 433.003906 129.878906 447.585938 126.785156 462.28125 C 125.519531 468.253906 129.332031 474.105469 135.296875 475.375 C 136.082031 475.53125 136.839844 475.613281 137.609375 475.613281 C 142.710938 475.613281 147.300781 472.039062 148.398438 466.839844 C 151.160156 453.773438 155.5 440.769531 161.304688 428.199219 C 190.269531 365.492188 247.578125 329.945312 289.0625 349.160156 C 309.28125 358.484375 322.691406 379.484375 326.851562 408.285156 C 327.714844 414.324219 333.109375 418.507812 339.367188 417.644531 C 345.390625 416.777344 349.59375 411.179688 348.722656 405.136719 C 343.535156 369.199219 325.179688 341.480469 298.328125 329.09375 C 298.058594 328.96875 231.792969 298.347656 231.792969 298.347656 C 231.550781 298.230469 231.308594 298.128906 231.058594 298.035156 C 205.019531 286.332031 174.324219 289.609375 144.480469 307.308594 C 115.679688 324.390625 90.882812 353.121094 74.695312 388.195312 C 40.605469 461.996094 55.613281 541.777344 108.164062 566.050781 C 108.164062 566.050781 174.253906 596.546875 174.726562 596.769531 C 185 601.515625 196.210938 603.878906 207.867188 603.878906 C 221.203125 603.878906 235.121094 600.789062 248.886719 594.632812 C 254.460938 592.140625 256.949219 585.601562 254.460938 580.03125 C 251.953125 574.441406 245.410156 571.980469 239.851562 574.457031 " fill-opacity="1" fill-rule="nonzero"></path><path fill="#ffffff" d="M 575.78125 501.613281 C 569.679688 501.765625 564.855469 506.832031 565.003906 512.933594 C 565.144531 518.941406 570.066406 523.714844 576.050781 523.714844 C 576.136719 523.714844 576.222656 523.714844 576.324219 523.714844 C 619.535156 522.660156 654.6875 486.621094 654.6875 443.378906 C 654.6875 399.066406 618.640625 363.027344 574.324219 363.027344 C 542.324219 363.027344 513.402344 381.988281 500.625 411.335938 C 498.195312 416.933594 500.753906 423.445312 506.335938 425.875 C 511.9375 428.324219 518.453125 425.765625 520.886719 420.15625 C 530.148438 398.875 551.132812 385.128906 574.324219 385.128906 C 606.453125 385.128906 632.585938 411.257812 632.585938 443.378906 C 632.585938 474.726562 607.101562 500.847656 575.78125 501.613281 " fill-opacity="1" fill-rule="nonzero"></path><g clip-path="url(#817d6098ac)"><path fill="#ffffff" d="M 732.402344 251.703125 L 698.960938 323.898438 C 692.320312 316.976562 685.09375 310.671875 677.394531 304.925781 L 707.410156 240.128906 C 717.496094 218.320312 715.867188 194.199219 702.933594 173.9375 C 689.996094 153.691406 668.804688 142.082031 644.761719 142.082031 L 630.945312 142.082031 C 624.84375 142.082031 619.894531 147.03125 619.894531 153.132812 C 619.894531 159.234375 624.84375 164.183594 630.945312 164.183594 L 644.761719 164.183594 C 661.109375 164.183594 675.523438 172.078125 684.316406 185.839844 C 693.109375 199.613281 694.214844 216.023438 687.351562 230.839844 L 658.710938 292.660156 C 633.730469 278.609375 604.972656 270.511719 574.324219 270.511719 C 544.339844 270.511719 515.832031 278.179688 490.851562 291.910156 L 462.5625 230.847656 C 455.6875 216.023438 456.796875 199.613281 465.601562 185.839844 C 474.394531 172.078125 488.8125 164.183594 505.144531 164.183594 L 597.835938 164.183594 C 603.9375 164.183594 608.886719 159.234375 608.886719 153.132812 C 608.886719 147.03125 603.9375 142.082031 597.835938 142.082031 L 505.144531 142.082031 C 481.117188 142.082031 459.914062 153.691406 446.984375 173.9375 C 434.03125 194.191406 432.40625 218.320312 442.507812 240.140625 L 472.058594 303.933594 C 464.355469 309.585938 457.105469 315.851562 450.414062 322.742188 L 417.511719 251.71875 C 403.585938 221.636719 405.929688 187.019531 423.761719 159.121094 C 441.601562 131.203125 472.019531 114.53125 505.144531 114.53125 L 644.761719 114.53125 C 677.878906 114.53125 708.316406 131.203125 726.15625 159.121094 C 743.984375 187.03125 746.316406 221.648438 732.402344 251.703125 Z M 744.777344 147.21875 C 722.859375 112.914062 685.464844 92.429688 644.761719 92.429688 L 505.144531 92.429688 C 464.453125 92.429688 427.050781 112.914062 405.136719 147.21875 C 383.226562 181.507812 380.351562 224.042969 397.457031 261.007812 L 434.710938 341.441406 C 426.398438 352.878906 419.316406 365.410156 413.855469 378.992188 C 411.585938 384.660156 414.332031 391.089844 420.003906 393.363281 C 425.644531 395.652344 432.089844 392.910156 434.378906 387.226562 C 439.792969 373.738281 447.023438 361.421875 455.625 350.390625 C 455.757812 350.25 455.84375 350.089844 455.960938 349.945312 C 465.824219 337.394531 477.511719 326.574219 490.621094 317.839844 C 490.644531 317.835938 490.664062 317.839844 490.679688 317.828125 C 490.765625 317.792969 490.816406 317.710938 490.898438 317.671875 C 515.039062 301.65625 543.824219 292.609375 574.324219 292.609375 C 657.464844 292.609375 725.09375 360.246094 725.09375 443.378906 C 725.09375 496.867188 696.605469 546.449219 650.527344 573.488281 L 574.960938 573.488281 C 568.859375 573.488281 563.90625 578.433594 563.90625 584.535156 C 563.90625 590.636719 568.859375 595.589844 574.960938 595.589844 L 653.480469 595.589844 C 655.378906 595.589844 657.234375 595.097656 658.890625 594.167969 C 713.367188 563.570312 747.195312 505.792969 747.195312 443.378906 C 747.195312 405.820312 735.019531 371.125 714.59375 342.738281 L 752.460938 260.992188 C 769.554688 224.054688 766.691406 181.523438 744.777344 147.21875 " fill-opacity="1" fill-rule="nonzero"></path></g></svg>