<svg xmlns="http://www.w3.org/2000/svg" xmlns:xlink="http://www.w3.org/1999/xlink" width="2005" zoomAndPan="magnify" viewBox="0 0 1503.75 380.999991" height="508" preserveAspectRatio="xMidYMid meet" version="1.0"><defs><g/><clipPath id="055637ca89"><path d="M 854.410156 229.671875 L 1023.882812 229.671875 L 1023.882812 380.96875 L 854.410156 380.96875 Z M 854.410156 229.671875 " clip-rule="nonzero"/></clipPath><clipPath id="3d89cda25d"><rect x="0" width="376" y="0" height="96"/></clipPath><clipPath id="1888e39bda"><path d="M 0.175781 14 L 28 14 L 28 92 L 0.175781 92 Z M 0.175781 14 " clip-rule="nonzero"/></clipPath><clipPath id="112f07da87"><rect x="0" width="192" y="0" height="96"/></clipPath></defs><g clip-path="url(#055637ca89)"><path fill="#02308c" d="M 1013.804688 229.550781 L 865.167969 229.550781 C 859.421875 229.550781 854.683594 234.289062 854.683594 240.035156 L 854.683594 370.289062 C 854.683594 376.035156 859.421875 380.773438 865.167969 380.773438 L 1013.804688 380.773438 C 1019.550781 380.773438 1024.289062 376.035156 1024.289062 370.289062 L 1024.289062 240.035156 C 1024.289062 234.148438 1019.550781 229.550781 1013.804688 229.550781 Z M 938.554688 336.683594 L 924.191406 313.851562 L 918.589844 320.886719 L 918.589844 336.542969 L 904.515625 336.542969 L 904.515625 278.667969 L 918.589844 278.667969 L 918.589844 303.222656 L 919.308594 303.222656 L 938.410156 278.667969 L 954.925781 278.667969 L 934.386719 304.515625 L 955.355469 336.542969 L 938.554688 336.542969 Z M 974.457031 336.683594 L 960.523438 336.683594 L 960.523438 278.808594 L 974.457031 278.808594 Z M 974.457031 336.683594 " fill-opacity="1" fill-rule="nonzero"/></g><g transform="matrix(1, 0, 0, 1, 1034, 257)"><g clip-path="url(#3d89cda25d)"><g fill="#02308c" fill-opacity="1"><g transform="translate(1.675649, 75.804309)"><g><path d="M 4.046875 -26.765625 L 26.0625 -26.765625 L 26.0625 -17.03125 L 4.046875 -17.03125 Z M 4.046875 -26.765625 "/></g></g></g><g fill="#02308c" fill-opacity="1"><g transform="translate(32.483991, 75.804309)"><g><path d="M 48.78125 -41.859375 L 48.78125 -7 C 48.78125 0.675781 46.78125 6.378906 42.78125 10.109375 C 38.789062 13.847656 32.957031 15.71875 25.28125 15.71875 C 21.238281 15.71875 17.398438 15.222656 13.765625 14.234375 C 10.140625 13.253906 7.132812 11.828125 4.75 9.953125 L 9.5625 1.25 C 11.332031 2.695312 13.566406 3.847656 16.265625 4.703125 C 18.960938 5.554688 21.65625 5.984375 24.34375 5.984375 C 28.550781 5.984375 31.648438 5.035156 33.640625 3.140625 C 35.640625 1.253906 36.640625 -1.609375 36.640625 -5.453125 L 36.640625 -7.234375 C 33.472656 -3.753906 29.066406 -2.015625 23.421875 -2.015625 C 19.578125 -2.015625 16.0625 -2.859375 12.875 -4.546875 C 9.6875 -6.234375 7.15625 -8.609375 5.28125 -11.671875 C 3.414062 -14.734375 2.484375 -18.257812 2.484375 -22.25 C 2.484375 -26.238281 3.414062 -29.765625 5.28125 -32.828125 C 7.15625 -35.890625 9.6875 -38.265625 12.875 -39.953125 C 16.0625 -41.640625 19.578125 -42.484375 23.421875 -42.484375 C 29.484375 -42.484375 34.097656 -40.484375 37.265625 -36.484375 L 37.265625 -41.859375 Z M 25.828125 -11.984375 C 29.046875 -11.984375 31.675781 -12.925781 33.71875 -14.8125 C 35.769531 -16.707031 36.796875 -19.1875 36.796875 -22.25 C 36.796875 -25.3125 35.769531 -27.785156 33.71875 -29.671875 C 31.675781 -31.566406 29.046875 -32.515625 25.828125 -32.515625 C 22.609375 -32.515625 19.960938 -31.566406 17.890625 -29.671875 C 15.816406 -27.785156 14.78125 -25.3125 14.78125 -22.25 C 14.78125 -19.1875 15.816406 -16.707031 17.890625 -14.8125 C 19.960938 -12.925781 22.609375 -11.984375 25.828125 -11.984375 Z M 25.828125 -11.984375 "/></g></g></g><g fill="#02308c" fill-opacity="1"><g transform="translate(86.943132, 75.804309)"><g><path d="M 46.59375 -20.765625 C 46.59375 -20.609375 46.515625 -19.519531 46.359375 -17.5 L 14.703125 -17.5 C 15.273438 -14.90625 16.625 -12.859375 18.75 -11.359375 C 20.875 -9.859375 23.519531 -9.109375 26.6875 -9.109375 C 28.863281 -9.109375 30.796875 -9.429688 32.484375 -10.078125 C 34.171875 -10.722656 35.738281 -11.742188 37.1875 -13.140625 L 43.640625 -6.140625 C 39.703125 -1.628906 33.945312 0.625 26.375 0.625 C 21.65625 0.625 17.476562 -0.296875 13.84375 -2.140625 C 10.21875 -3.984375 7.414062 -6.535156 5.4375 -9.796875 C 3.46875 -13.066406 2.484375 -16.773438 2.484375 -20.921875 C 2.484375 -25.023438 3.457031 -28.722656 5.40625 -32.015625 C 7.351562 -35.304688 10.023438 -37.875 13.421875 -39.71875 C 16.816406 -41.5625 20.613281 -42.484375 24.8125 -42.484375 C 28.914062 -42.484375 32.625 -41.597656 35.9375 -39.828125 C 39.257812 -38.066406 41.863281 -35.539062 43.75 -32.25 C 45.644531 -28.957031 46.59375 -25.128906 46.59375 -20.765625 Z M 24.890625 -33.296875 C 22.140625 -33.296875 19.832031 -32.515625 17.96875 -30.953125 C 16.101562 -29.398438 14.960938 -27.273438 14.546875 -24.578125 L 35.171875 -24.578125 C 34.753906 -27.222656 33.609375 -29.335938 31.734375 -30.921875 C 29.867188 -32.503906 27.585938 -33.296875 24.890625 -33.296875 Z M 24.890625 -33.296875 "/></g></g></g><g fill="#02308c" fill-opacity="1"><g transform="translate(136.034153, 75.804309)"><g><path d="M 19.6875 0.625 C 16.207031 0.625 12.804688 0.195312 9.484375 -0.65625 C 6.171875 -1.507812 3.53125 -2.585938 1.5625 -3.890625 L 5.59375 -12.609375 C 7.46875 -11.410156 9.726562 -10.4375 12.375 -9.6875 C 15.019531 -8.9375 17.613281 -8.5625 20.15625 -8.5625 C 25.28125 -8.5625 27.84375 -9.832031 27.84375 -12.375 C 27.84375 -13.5625 27.144531 -14.414062 25.75 -14.9375 C 24.351562 -15.457031 22.203125 -15.898438 19.296875 -16.265625 C 15.867188 -16.773438 13.039062 -17.367188 10.8125 -18.046875 C 8.582031 -18.722656 6.648438 -19.914062 5.015625 -21.625 C 3.378906 -23.332031 2.5625 -25.769531 2.5625 -28.9375 C 2.5625 -31.582031 3.328125 -33.925781 4.859375 -35.96875 C 6.390625 -38.019531 8.617188 -39.617188 11.546875 -40.765625 C 14.484375 -41.910156 17.945312 -42.484375 21.9375 -42.484375 C 24.894531 -42.484375 27.835938 -42.15625 30.765625 -41.5 C 33.703125 -40.851562 36.128906 -39.960938 38.046875 -38.828125 L 34 -30.1875 C 30.3125 -32.257812 26.289062 -33.296875 21.9375 -33.296875 C 19.34375 -33.296875 17.394531 -32.929688 16.09375 -32.203125 C 14.800781 -31.484375 14.15625 -30.550781 14.15625 -29.40625 C 14.15625 -28.113281 14.851562 -27.207031 16.25 -26.6875 C 17.65625 -26.164062 19.890625 -25.671875 22.953125 -25.203125 C 26.367188 -24.628906 29.164062 -24.019531 31.34375 -23.375 C 33.53125 -22.726562 35.425781 -21.546875 37.03125 -19.828125 C 38.632812 -18.117188 39.4375 -15.738281 39.4375 -12.6875 C 39.4375 -10.09375 38.660156 -7.78125 37.109375 -5.75 C 35.554688 -3.726562 33.285156 -2.160156 30.296875 -1.046875 C 27.316406 0.0664062 23.78125 0.625 19.6875 0.625 Z M 19.6875 0.625 "/></g></g></g><g fill="#02308c" fill-opacity="1"><g transform="translate(177.345313, 75.804309)"><g><path d="M 32.59375 -2.015625 C 31.40625 -1.140625 29.941406 -0.476562 28.203125 -0.03125 C 26.460938 0.40625 24.632812 0.625 22.71875 0.625 C 17.738281 0.625 13.882812 -0.644531 11.15625 -3.1875 C 8.4375 -5.726562 7.078125 -9.460938 7.078125 -14.390625 L 7.078125 -31.578125 L 0.625 -31.578125 L 0.625 -40.921875 L 7.078125 -40.921875 L 7.078125 -51.109375 L 19.21875 -51.109375 L 19.21875 -40.921875 L 29.640625 -40.921875 L 29.640625 -31.578125 L 19.21875 -31.578125 L 19.21875 -14.546875 C 19.21875 -12.785156 19.671875 -11.425781 20.578125 -10.46875 C 21.484375 -9.507812 22.765625 -9.03125 24.421875 -9.03125 C 26.347656 -9.03125 27.984375 -9.546875 29.328125 -10.578125 Z M 32.59375 -2.015625 "/></g></g></g><g fill="#02308c" fill-opacity="1"><g transform="translate(211.187775, 75.804309)"><g><path d="M 47.765625 -41.859375 L 47.765625 0 L 36.25 0 L 36.25 -4.984375 C 34.644531 -3.160156 32.726562 -1.769531 30.5 -0.8125 C 28.269531 0.144531 25.859375 0.625 23.265625 0.625 C 17.765625 0.625 13.40625 -0.957031 10.1875 -4.125 C 6.976562 -7.289062 5.375 -11.984375 5.375 -18.203125 L 5.375 -41.859375 L 17.5 -41.859375 L 17.5 -20 C 17.5 -13.25 20.328125 -9.875 25.984375 -9.875 C 28.890625 -9.875 31.222656 -10.820312 32.984375 -12.71875 C 34.742188 -14.613281 35.625 -17.425781 35.625 -21.15625 L 35.625 -41.859375 Z M 18.671875 -47.609375 C 17.117188 -47.609375 15.820312 -48.113281 14.78125 -49.125 C 13.75 -50.132812 13.234375 -51.421875 13.234375 -52.984375 C 13.234375 -54.535156 13.75 -55.816406 14.78125 -56.828125 C 15.820312 -57.835938 17.117188 -58.34375 18.671875 -58.34375 C 20.234375 -58.34375 21.519531 -57.835938 22.53125 -56.828125 C 23.539062 -55.816406 24.046875 -54.535156 24.046875 -52.984375 C 24.046875 -51.421875 23.539062 -50.132812 22.53125 -49.125 C 21.519531 -48.113281 20.234375 -47.609375 18.671875 -47.609375 Z M 34.390625 -47.609375 C 32.835938 -47.609375 31.554688 -48.113281 30.546875 -49.125 C 29.535156 -50.132812 29.03125 -51.421875 29.03125 -52.984375 C 29.03125 -54.535156 29.535156 -55.816406 30.546875 -56.828125 C 31.554688 -57.835938 32.835938 -58.34375 34.390625 -58.34375 C 35.953125 -58.34375 37.25 -57.835938 38.28125 -56.828125 C 39.320312 -55.816406 39.84375 -54.535156 39.84375 -52.984375 C 39.84375 -51.421875 39.320312 -50.132812 38.28125 -49.125 C 37.25 -48.113281 35.953125 -47.609375 34.390625 -47.609375 Z M 34.390625 -47.609375 "/></g></g></g><g fill="#02308c" fill-opacity="1"><g transform="translate(264.635508, 75.804309)"><g><path d="M 32.59375 -2.015625 C 31.40625 -1.140625 29.941406 -0.476562 28.203125 -0.03125 C 26.460938 0.40625 24.632812 0.625 22.71875 0.625 C 17.738281 0.625 13.882812 -0.644531 11.15625 -3.1875 C 8.4375 -5.726562 7.078125 -9.460938 7.078125 -14.390625 L 7.078125 -31.578125 L 0.625 -31.578125 L 0.625 -40.921875 L 7.078125 -40.921875 L 7.078125 -51.109375 L 19.21875 -51.109375 L 19.21875 -40.921875 L 29.640625 -40.921875 L 29.640625 -31.578125 L 19.21875 -31.578125 L 19.21875 -14.546875 C 19.21875 -12.785156 19.671875 -11.425781 20.578125 -10.46875 C 21.484375 -9.507812 22.765625 -9.03125 24.421875 -9.03125 C 26.347656 -9.03125 27.984375 -9.546875 29.328125 -10.578125 Z M 32.59375 -2.015625 "/></g></g></g><g fill="#02308c" fill-opacity="1"><g transform="translate(298.47797, 75.804309)"><g><path d="M 40.0625 -9.328125 L 40.0625 0 L 2.71875 0 L 2.71875 -7.3125 L 24.046875 -32.515625 L 3.265625 -32.515625 L 3.265625 -41.859375 L 39.359375 -41.859375 L 39.359375 -34.546875 L 18.046875 -9.328125 Z M 40.0625 -9.328125 "/></g></g></g><g fill="#02308c" fill-opacity="1"><g transform="translate(340.956125, 75.804309)"><g><path d="M 32.59375 -2.015625 C 31.40625 -1.140625 29.941406 -0.476562 28.203125 -0.03125 C 26.460938 0.40625 24.632812 0.625 22.71875 0.625 C 17.738281 0.625 13.882812 -0.644531 11.15625 -3.1875 C 8.4375 -5.726562 7.078125 -9.460938 7.078125 -14.390625 L 7.078125 -31.578125 L 0.625 -31.578125 L 0.625 -40.921875 L 7.078125 -40.921875 L 7.078125 -51.109375 L 19.21875 -51.109375 L 19.21875 -40.921875 L 29.640625 -40.921875 L 29.640625 -31.578125 L 19.21875 -31.578125 L 19.21875 -14.546875 C 19.21875 -12.785156 19.671875 -11.425781 20.578125 -10.46875 C 21.484375 -9.507812 22.765625 -9.03125 24.421875 -9.03125 C 26.347656 -9.03125 27.984375 -9.546875 29.328125 -10.578125 Z M 32.59375 -2.015625 "/></g></g></g></g></g><g transform="matrix(1, 0, 0, 1, 635, 257)"><g clip-path="url(#112f07da87)"><g clip-path="url(#1888e39bda)"><g fill="#02308c" fill-opacity="1"><g transform="translate(7.916753, 75.804309)"><g><path d="M 2.484375 15.71875 C -1.765625 15.71875 -5.003906 14.9375 -7.234375 13.375 L -3.96875 4.59375 C -2.5625 5.570312 -0.847656 6.0625 1.171875 6.0625 C 2.722656 6.0625 3.9375 5.554688 4.8125 4.546875 C 5.695312 3.535156 6.140625 2.019531 6.140625 0 L 6.140625 -41.859375 L 18.28125 -41.859375 L 18.28125 -0.078125 C 18.28125 4.796875 16.890625 8.644531 14.109375 11.46875 C 11.335938 14.300781 7.460938 15.71875 2.484375 15.71875 Z M 12.203125 -47.6875 C 9.972656 -47.6875 8.15625 -48.332031 6.75 -49.625 C 5.351562 -50.925781 4.65625 -52.535156 4.65625 -54.453125 C 4.65625 -56.378906 5.351562 -57.988281 6.75 -59.28125 C 8.15625 -60.570312 9.972656 -61.21875 12.203125 -61.21875 C 14.429688 -61.21875 16.242188 -60.59375 17.640625 -59.34375 C 19.046875 -58.101562 19.75 -56.550781 19.75 -54.6875 C 19.75 -52.664062 19.046875 -50.992188 17.640625 -49.671875 C 16.242188 -48.347656 14.429688 -47.6875 12.203125 -47.6875 Z M 12.203125 -47.6875 "/></g></g></g></g><g fill="#02308c" fill-opacity="1"><g transform="translate(31.800973, 75.804309)"><g><path d="M 46.59375 -20.765625 C 46.59375 -20.609375 46.515625 -19.519531 46.359375 -17.5 L 14.703125 -17.5 C 15.273438 -14.90625 16.625 -12.859375 18.75 -11.359375 C 20.875 -9.859375 23.519531 -9.109375 26.6875 -9.109375 C 28.863281 -9.109375 30.796875 -9.429688 32.484375 -10.078125 C 34.171875 -10.722656 35.738281 -11.742188 37.1875 -13.140625 L 43.640625 -6.140625 C 39.703125 -1.628906 33.945312 0.625 26.375 0.625 C 21.65625 0.625 17.476562 -0.296875 13.84375 -2.140625 C 10.21875 -3.984375 7.414062 -6.535156 5.4375 -9.796875 C 3.46875 -13.066406 2.484375 -16.773438 2.484375 -20.921875 C 2.484375 -25.023438 3.457031 -28.722656 5.40625 -32.015625 C 7.351562 -35.304688 10.023438 -37.875 13.421875 -39.71875 C 16.816406 -41.5625 20.613281 -42.484375 24.8125 -42.484375 C 28.914062 -42.484375 32.625 -41.597656 35.9375 -39.828125 C 39.257812 -38.066406 41.863281 -35.539062 43.75 -32.25 C 45.644531 -28.957031 46.59375 -25.128906 46.59375 -20.765625 Z M 24.890625 -33.296875 C 22.140625 -33.296875 19.832031 -32.515625 17.96875 -30.953125 C 16.101562 -29.398438 14.960938 -27.273438 14.546875 -24.578125 L 35.171875 -24.578125 C 34.753906 -27.222656 33.609375 -29.335938 31.734375 -30.921875 C 29.867188 -32.503906 27.585938 -33.296875 24.890625 -33.296875 Z M 24.890625 -33.296875 "/></g></g></g><g fill="#02308c" fill-opacity="1"><g transform="translate(80.891994, 75.804309)"><g><path d="M 32.59375 -2.015625 C 31.40625 -1.140625 29.941406 -0.476562 28.203125 -0.03125 C 26.460938 0.40625 24.632812 0.625 22.71875 0.625 C 17.738281 0.625 13.882812 -0.644531 11.15625 -3.1875 C 8.4375 -5.726562 7.078125 -9.460938 7.078125 -14.390625 L 7.078125 -31.578125 L 0.625 -31.578125 L 0.625 -40.921875 L 7.078125 -40.921875 L 7.078125 -51.109375 L 19.21875 -51.109375 L 19.21875 -40.921875 L 29.640625 -40.921875 L 29.640625 -31.578125 L 19.21875 -31.578125 L 19.21875 -14.546875 C 19.21875 -12.785156 19.671875 -11.425781 20.578125 -10.46875 C 21.484375 -9.507812 22.765625 -9.03125 24.421875 -9.03125 C 26.347656 -9.03125 27.984375 -9.546875 29.328125 -10.578125 Z M 32.59375 -2.015625 "/></g></g></g><g fill="#02308c" fill-opacity="1"><g transform="translate(114.734456, 75.804309)"><g><path d="M 40.0625 -9.328125 L 40.0625 0 L 2.71875 0 L 2.71875 -7.3125 L 24.046875 -32.515625 L 3.265625 -32.515625 L 3.265625 -41.859375 L 39.359375 -41.859375 L 39.359375 -34.546875 L 18.046875 -9.328125 Z M 40.0625 -9.328125 "/></g></g></g><g fill="#02308c" fill-opacity="1"><g transform="translate(157.21259, 75.804309)"><g><path d="M 32.59375 -2.015625 C 31.40625 -1.140625 29.941406 -0.476562 28.203125 -0.03125 C 26.460938 0.40625 24.632812 0.625 22.71875 0.625 C 17.738281 0.625 13.882812 -0.644531 11.15625 -3.1875 C 8.4375 -5.726562 7.078125 -9.460938 7.078125 -14.390625 L 7.078125 -31.578125 L 0.625 -31.578125 L 0.625 -40.921875 L 7.078125 -40.921875 L 7.078125 -51.109375 L 19.21875 -51.109375 L 19.21875 -40.921875 L 29.640625 -40.921875 L 29.640625 -31.578125 L 19.21875 -31.578125 L 19.21875 -14.546875 C 19.21875 -12.785156 19.671875 -11.425781 20.578125 -10.46875 C 21.484375 -9.507812 22.765625 -9.03125 24.421875 -9.03125 C 26.347656 -9.03125 27.984375 -9.546875 29.328125 -10.578125 Z M 32.59375 -2.015625 "/></g></g></g></g></g><path fill="#000000" d="M 94.902344 95.265625 L 121.496094 95.265625 C 136.003906 95.265625 143.863281 103.941406 143.863281 115.636719 C 143.863281 127.335938 136.003906 136.011719 121.496094 136.011719 L 103.160156 136.011719 L 103.160156 158.601562 L 94.902344 158.601562 Z M 103.160156 102.527344 L 103.160156 128.949219 L 121.496094 128.949219 C 130.765625 128.949219 135.398438 123.503906 135.398438 115.839844 C 135.398438 108.175781 130.5625 102.527344 121.296875 102.527344 Z M 103.160156 102.527344 " fill-opacity="1" fill-rule="nonzero"/><path fill="#000000" d="M 221.234375 95.265625 L 229.496094 95.265625 L 229.496094 158.601562 L 221.234375 158.601562 Z M 221.234375 95.265625 " fill-opacity="1" fill-rule="nonzero"/><path fill="#000000" d="M 442.464844 95.265625 L 487.195312 95.265625 L 487.195312 102.527344 L 450.726562 102.527344 L 450.726562 125.320312 L 479.742188 125.320312 L 479.742188 132.179688 L 450.726562 132.179688 L 450.726562 158.601562 L 442.464844 158.601562 Z M 442.464844 95.265625 " fill-opacity="1" fill-rule="nonzero"/><path fill="#000000" d="M 588.546875 93.855469 C 607.082031 93.855469 620.984375 107.972656 620.984375 126.933594 C 620.984375 145.894531 607.082031 160.011719 588.546875 160.011719 C 570.007812 160.011719 556.105469 145.894531 556.105469 126.933594 C 556.105469 107.972656 569.808594 93.855469 588.546875 93.855469 Z M 588.546875 152.347656 C 602.648438 152.347656 612.320312 141.457031 612.320312 126.933594 C 612.320312 112.410156 602.648438 101.519531 588.546875 101.519531 C 574.441406 101.519531 564.769531 112.410156 564.769531 126.933594 C 564.769531 141.457031 574.238281 152.347656 588.546875 152.347656 Z M 588.546875 152.347656 " fill-opacity="1" fill-rule="nonzero"/><path fill="#000000" d="M 698.355469 95.265625 L 725.757812 95.265625 C 739.863281 95.265625 747.519531 102.328125 747.519531 114.023438 C 747.519531 123.910156 742.078125 130.96875 732.003906 132.984375 L 749.9375 158.800781 L 740.667969 158.800781 L 723.339844 133.386719 L 706.617188 133.386719 L 706.617188 158.601562 L 698.355469 158.601562 Z M 706.816406 102.527344 L 706.816406 126.328125 L 725.960938 126.328125 C 735.027344 126.328125 739.257812 121.488281 739.257812 114.226562 C 739.257812 106.964844 734.625 102.730469 725.960938 102.730469 Z M 706.816406 102.527344 " fill-opacity="1" fill-rule="nonzero"/><path fill="#000000" d="M 827.308594 95.265625 L 836.375 95.265625 L 859.949219 130.5625 L 883.523438 95.265625 L 892.589844 95.265625 L 892.589844 158.601562 L 884.328125 158.601562 L 884.730469 107.570312 L 862.769531 140.042969 L 857.328125 140.042969 L 835.367188 107.570312 L 835.769531 158.601562 L 827.507812 158.601562 L 827.507812 95.265625 Z M 827.308594 95.265625 " fill-opacity="1" fill-rule="nonzero"/><path fill="#000000" d="M 990.511719 95.265625 L 1000.183594 95.265625 L 1024.96875 158.601562 L 1016.304688 158.601562 L 1009.652344 141.457031 L 980.238281 141.457031 L 973.585938 158.601562 L 965.328125 158.601562 Z M 994.945312 103.738281 L 983.058594 134.597656 L 1007.234375 134.597656 L 995.347656 103.738281 Z M 994.945312 103.738281 " fill-opacity="1" fill-rule="nonzero"/><path fill="#000000" d="M 1098.105469 95.265625 L 1105.761719 95.265625 L 1143.039062 144.886719 L 1143.238281 144.886719 L 1143.039062 95.066406 L 1151.300781 95.066406 L 1151.300781 158.398438 L 1143.644531 158.398438 L 1106.367188 108.578125 L 1105.964844 108.578125 L 1106.367188 158.398438 L 1098.105469 158.398438 Z M 1098.105469 95.265625 " fill-opacity="1" fill-rule="nonzero"/><path fill="#000000" d="M 1262.117188 93.855469 C 1271.585938 93.855469 1280.855469 97.6875 1286.296875 104.546875 L 1280.65625 109.789062 C 1276.222656 104.34375 1269.371094 101.117188 1262.320312 101.316406 C 1247.410156 101.316406 1237.941406 112.007812 1237.941406 126.730469 C 1237.941406 141.457031 1247.410156 152.144531 1262.117188 152.144531 C 1269.171875 152.347656 1276.019531 149.324219 1280.453125 143.675781 L 1286.09375 148.917969 C 1280.65625 155.777344 1271.585938 159.609375 1261.917969 159.609375 C 1242.171875 159.609375 1228.871094 145.085938 1228.871094 126.53125 C 1228.871094 107.972656 1242.171875 93.855469 1262.117188 93.855469 Z M 1262.117188 93.855469 " fill-opacity="1" fill-rule="nonzero"/><path fill="#000000" d="M 1362.457031 95.265625 L 1407.59375 95.265625 L 1407.59375 102.527344 L 1370.71875 102.527344 L 1370.71875 122.898438 L 1400.742188 122.898438 L 1400.742188 129.757812 L 1370.71875 129.757812 L 1370.71875 151.542969 L 1408.597656 151.542969 L 1408.597656 158.800781 L 1362.457031 158.800781 Z M 1362.457031 95.265625 " fill-opacity="1" fill-rule="nonzero"/><path fill="#000000" d="M 262.941406 203.78125 C 261.328125 202.371094 261.128906 200.152344 262.539062 198.535156 L 420.707031 35.765625 C 422.316406 34.355469 424.734375 34.554688 426.144531 35.96875 C 427.757812 37.378906 427.960938 39.597656 426.550781 41.210938 L 268.382812 203.984375 C 266.769531 205.597656 264.351562 205.394531 262.941406 203.78125 Z M 262.941406 203.78125 " fill-opacity="1" fill-rule="nonzero"/><path fill="#000000" d="M 343.335938 142.464844 L 418.488281 216.691406 C 420.101562 218.101562 422.316406 217.898438 423.726562 216.488281 C 425.136719 215.078125 425.339844 212.859375 423.929688 211.242188 L 348.574219 136.816406 Z M 343.335938 142.464844 " fill-opacity="1" fill-rule="nonzero"/><path fill="#000000" d="M 329.230469 114.628906 L 288.128906 74.695312 C 286.515625 73.28125 284.097656 73.484375 282.886719 75.097656 C 281.277344 76.507812 281.277344 78.929688 282.6875 80.339844 L 323.789062 120.277344 Z M 329.230469 114.628906 " fill-opacity="1" fill-rule="nonzero"/></svg>