<svg xmlns="http://www.w3.org/2000/svg" xmlns:xlink="http://www.w3.org/1999/xlink" width="1080" zoomAndPan="magnify" viewBox="0 0 810 817.92" height="1080" preserveAspectRatio="xMidYMid meet" version="1.0"><defs><clipPath id="c9aae787a8"><path d="M 81.03125 80.992188 L 728.96875 80.992188 L 728.96875 728.929688 L 81.03125 728.929688 Z M 81.03125 80.992188 " clip-rule="nonzero"></path></clipPath></defs><g clip-path="url(#c9aae787a8)"><path fill="#02308c" d="M 680.71875 80.992188 L 129.28125 80.992188 C 127.703125 80.992188 126.125 81.070312 124.554688 81.222656 C 122.980469 81.378906 121.417969 81.609375 119.867188 81.917969 C 118.320312 82.226562 116.789062 82.609375 115.277344 83.070312 C 113.761719 83.527344 112.277344 84.058594 110.816406 84.664062 C 109.359375 85.269531 107.929688 85.945312 106.539062 86.691406 C 105.144531 87.433594 103.789062 88.246094 102.476562 89.125 C 101.160156 90 99.894531 90.941406 98.671875 91.945312 C 97.449219 92.945312 96.28125 94.007812 95.164062 95.125 C 94.046875 96.242188 92.988281 97.410156 91.984375 98.632812 C 90.980469 99.855469 90.042969 101.121094 89.164062 102.4375 C 88.285156 103.75 87.472656 105.105469 86.730469 106.496094 C 85.984375 107.890625 85.308594 109.316406 84.703125 110.777344 C 84.101562 112.238281 83.566406 113.722656 83.109375 115.234375 C 82.652344 116.75 82.265625 118.28125 81.957031 119.828125 C 81.652344 121.378906 81.417969 122.941406 81.265625 124.511719 C 81.109375 126.085938 81.03125 127.664062 81.03125 129.242188 L 81.03125 549.710938 C 81.03125 551.292969 81.109375 552.867188 81.265625 554.441406 C 81.417969 556.015625 81.652344 557.574219 81.957031 559.125 C 82.265625 560.675781 82.652344 562.207031 83.109375 563.71875 C 83.566406 565.230469 84.101562 566.71875 84.703125 568.175781 C 85.308594 569.636719 85.984375 571.0625 86.730469 572.457031 C 87.472656 573.851562 88.285156 575.203125 89.164062 576.519531 C 90.042969 577.832031 90.980469 579.101562 91.984375 580.320312 C 92.988281 581.542969 94.046875 582.714844 95.164062 583.832031 C 96.28125 584.949219 97.449219 586.007812 98.671875 587.011719 C 99.894531 588.011719 101.160156 588.953125 102.476562 589.832031 C 103.789062 590.707031 105.144531 591.519531 106.535156 592.265625 C 107.929688 593.011719 109.359375 593.683594 110.816406 594.289062 C 112.277344 594.894531 113.761719 595.425781 115.277344 595.886719 C 116.789062 596.34375 118.320312 596.726562 119.867188 597.035156 C 121.417969 597.34375 122.980469 597.574219 124.554688 597.730469 C 126.125 597.886719 127.703125 597.960938 129.28125 597.960938 L 308.5 597.960938 L 308.5 641.664062 L 298.433594 641.664062 C 296.855469 641.664062 295.277344 641.742188 293.707031 641.894531 C 292.132812 642.050781 290.570312 642.28125 289.023438 642.589844 C 287.472656 642.898438 285.941406 643.28125 284.429688 643.742188 C 282.917969 644.199219 281.429688 644.730469 279.96875 645.335938 C 278.511719 645.941406 277.082031 646.617188 275.691406 647.363281 C 274.296875 648.105469 272.941406 648.917969 271.628906 649.796875 C 270.316406 650.671875 269.046875 651.613281 267.824219 652.617188 C 266.605469 653.617188 265.433594 654.679688 264.316406 655.796875 C 263.199219 656.914062 262.140625 658.082031 261.136719 659.304688 C 260.132812 660.527344 259.195312 661.792969 258.316406 663.109375 C 257.4375 664.421875 256.625 665.777344 255.882812 667.167969 C 255.136719 668.5625 254.460938 669.988281 253.855469 671.449219 C 253.253906 672.910156 252.722656 674.394531 252.261719 675.910156 C 251.804688 677.421875 251.417969 678.953125 251.113281 680.5 C 250.804688 682.050781 250.570312 683.613281 250.417969 685.183594 C 250.261719 686.757812 250.183594 688.335938 250.183594 689.914062 L 250.183594 728.929688 L 559.816406 728.929688 L 559.816406 690.050781 C 559.816406 688.472656 559.738281 686.894531 559.582031 685.324219 C 559.429688 683.75 559.195312 682.1875 558.886719 680.640625 C 558.578125 679.089844 558.195312 677.558594 557.738281 676.046875 C 557.277344 674.535156 556.746094 673.046875 556.140625 671.585938 C 555.539062 670.128906 554.863281 668.699219 554.117188 667.308594 C 553.375 665.914062 552.5625 664.558594 551.683594 663.246094 C 550.804688 661.933594 549.867188 660.664062 548.863281 659.441406 C 547.859375 658.222656 546.800781 657.050781 545.683594 655.933594 C 544.566406 654.816406 543.394531 653.757812 542.175781 652.753906 C 540.953125 651.75 539.683594 650.8125 538.371094 649.933594 C 537.058594 649.054688 535.703125 648.246094 534.308594 647.5 C 532.917969 646.753906 531.488281 646.078125 530.03125 645.476562 C 528.570312 644.871094 527.082031 644.339844 525.570312 643.878906 C 524.058594 643.421875 522.527344 643.039062 520.976562 642.730469 C 519.429688 642.421875 517.867188 642.1875 516.292969 642.035156 C 514.722656 641.878906 513.144531 641.800781 511.566406 641.800781 L 501.5 641.800781 L 501.5 597.960938 L 680.71875 597.960938 C 682.296875 597.960938 683.875 597.886719 685.445312 597.730469 C 687.019531 597.574219 688.582031 597.34375 690.128906 597.035156 C 691.679688 596.726562 693.210938 596.34375 694.722656 595.886719 C 696.234375 595.425781 697.722656 594.894531 699.183594 594.289062 C 700.640625 593.683594 702.070312 593.011719 703.460938 592.265625 C 704.855469 591.519531 706.210938 590.707031 707.523438 589.832031 C 708.839844 588.953125 710.105469 588.011719 711.328125 587.011719 C 712.550781 586.007812 713.71875 584.949219 714.835938 583.832031 C 715.953125 582.714844 717.011719 581.542969 718.015625 580.320312 C 719.019531 579.101562 719.957031 577.832031 720.835938 576.519531 C 721.714844 575.203125 722.527344 573.851562 723.269531 572.457031 C 724.015625 571.0625 724.691406 569.636719 725.296875 568.175781 C 725.898438 566.71875 726.433594 565.230469 726.890625 563.71875 C 727.347656 562.207031 727.734375 560.675781 728.042969 559.125 C 728.347656 557.574219 728.582031 556.015625 728.734375 554.441406 C 728.890625 552.867188 728.96875 551.292969 728.96875 549.710938 L 728.96875 129.242188 C 728.96875 127.664062 728.890625 126.085938 728.734375 124.511719 C 728.582031 122.941406 728.347656 121.378906 728.042969 119.828125 C 727.734375 118.28125 727.347656 116.75 726.890625 115.234375 C 726.433594 113.722656 725.898438 112.238281 725.296875 110.777344 C 724.691406 109.316406 724.015625 107.890625 723.269531 106.496094 C 722.527344 105.105469 721.714844 103.75 720.835938 102.4375 C 719.957031 101.121094 719.019531 99.855469 718.015625 98.632812 C 717.011719 97.410156 715.953125 96.242188 714.835938 95.125 C 713.71875 94.007812 712.550781 92.945312 711.328125 91.945312 C 710.105469 90.941406 708.839844 90 707.523438 89.125 C 706.210938 88.246094 704.855469 87.433594 703.460938 86.691406 C 702.070312 85.945312 700.640625 85.269531 699.183594 84.664062 C 697.722656 84.058594 696.234375 83.527344 694.722656 83.070312 C 693.210938 82.609375 691.679688 82.226562 690.128906 81.917969 C 688.582031 81.609375 687.019531 81.378906 685.445312 81.222656 C 683.875 81.070312 682.296875 80.992188 680.71875 80.992188 Z M 129.28125 108.5625 L 680.71875 108.5625 C 681.394531 108.5625 682.070312 108.597656 682.746094 108.664062 C 683.417969 108.730469 684.085938 108.828125 684.75 108.960938 C 685.417969 109.09375 686.074219 109.257812 686.71875 109.453125 C 687.367188 109.652344 688.003906 109.878906 688.632812 110.136719 C 689.257812 110.398438 689.867188 110.6875 690.464844 111.003906 C 691.0625 111.324219 691.644531 111.671875 692.207031 112.050781 C 692.769531 112.425781 693.3125 112.828125 693.835938 113.257812 C 694.359375 113.6875 694.859375 114.140625 695.339844 114.621094 C 695.820312 115.097656 696.273438 115.601562 696.703125 116.125 C 697.132812 116.648438 697.535156 117.191406 697.910156 117.753906 C 698.289062 118.316406 698.636719 118.898438 698.953125 119.496094 C 699.273438 120.09375 699.5625 120.703125 699.824219 121.328125 C 700.082031 121.953125 700.308594 122.59375 700.507812 123.238281 C 700.703125 123.886719 700.867188 124.542969 701 125.207031 C 701.132812 125.871094 701.230469 126.542969 701.296875 127.214844 C 701.363281 127.890625 701.398438 128.566406 701.398438 129.242188 L 701.398438 503.460938 L 108.601562 503.460938 L 108.601562 129.242188 C 108.601562 128.566406 108.636719 127.890625 108.703125 127.214844 C 108.769531 126.542969 108.867188 125.871094 109 125.207031 C 109.132812 124.542969 109.296875 123.886719 109.492188 123.238281 C 109.691406 122.59375 109.917969 121.953125 110.175781 121.328125 C 110.4375 120.703125 110.726562 120.09375 111.046875 119.496094 C 111.363281 118.898438 111.710938 118.316406 112.089844 117.753906 C 112.464844 117.191406 112.867188 116.648438 113.296875 116.125 C 113.726562 115.601562 114.179688 115.097656 114.660156 114.621094 C 115.140625 114.140625 115.640625 113.6875 116.164062 113.257812 C 116.6875 112.828125 117.230469 112.425781 117.792969 112.050781 C 118.355469 111.671875 118.9375 111.324219 119.535156 111.003906 C 120.132812 110.6875 120.742188 110.398438 121.367188 110.136719 C 121.996094 109.878906 122.632812 109.652344 123.28125 109.453125 C 123.925781 109.257812 124.582031 109.09375 125.246094 108.960938 C 125.914062 108.828125 126.582031 108.730469 127.253906 108.664062 C 127.929688 108.597656 128.605469 108.5625 129.28125 108.5625 Z M 511.566406 669.375 C 512.242188 669.375 512.917969 669.40625 513.589844 669.472656 C 514.265625 669.539062 514.933594 669.640625 515.597656 669.769531 C 516.261719 669.902344 516.917969 670.066406 517.566406 670.265625 C 518.214844 670.460938 518.851562 670.6875 519.476562 670.949219 C 520.105469 671.207031 520.714844 671.496094 521.3125 671.816406 C 521.910156 672.132812 522.492188 672.480469 523.054688 672.859375 C 523.617188 673.234375 524.160156 673.636719 524.683594 674.066406 C 525.207031 674.496094 525.707031 674.953125 526.1875 675.429688 C 526.664062 675.910156 527.121094 676.410156 527.550781 676.933594 C 527.980469 677.457031 528.382812 678 528.757812 678.5625 C 529.136719 679.128906 529.484375 679.707031 529.800781 680.304688 C 530.121094 680.902344 530.410156 681.511719 530.667969 682.140625 C 530.929688 682.765625 531.15625 683.402344 531.351562 684.050781 C 531.550781 684.699219 531.714844 685.355469 531.847656 686.019531 C 531.976562 686.683594 532.078125 687.351562 532.144531 688.027344 C 532.210938 688.699219 532.242188 689.375 532.242188 690.050781 L 532.242188 701.355469 L 277.757812 701.355469 L 277.757812 690.050781 C 277.757812 689.375 277.789062 688.699219 277.855469 688.027344 C 277.921875 687.351562 278.023438 686.683594 278.152344 686.019531 C 278.285156 685.355469 278.449219 684.699219 278.648438 684.050781 C 278.84375 683.402344 279.070312 682.765625 279.332031 682.140625 C 279.589844 681.511719 279.878906 680.902344 280.199219 680.304688 C 280.515625 679.707031 280.863281 679.128906 281.242188 678.5625 C 281.617188 678 282.019531 677.457031 282.449219 676.933594 C 282.878906 676.410156 283.335938 675.910156 283.8125 675.429688 C 284.292969 674.953125 284.792969 674.496094 285.316406 674.066406 C 285.839844 673.636719 286.382812 673.234375 286.945312 672.859375 C 287.507812 672.484375 288.089844 672.132812 288.6875 671.816406 C 289.285156 671.496094 289.894531 671.207031 290.523438 670.949219 C 291.148438 670.6875 291.785156 670.460938 292.433594 670.265625 C 293.082031 670.066406 293.738281 669.902344 294.402344 669.769531 C 295.066406 669.640625 295.734375 669.539062 296.410156 669.472656 C 297.082031 669.40625 297.757812 669.375 298.433594 669.375 Z M 473.964844 641.800781 L 336.070312 641.800781 L 336.070312 597.960938 L 473.929688 597.960938 Z M 680.71875 570.390625 L 129.28125 570.390625 C 128.605469 570.390625 127.929688 570.359375 127.253906 570.292969 C 126.582031 570.226562 125.914062 570.125 125.246094 569.992188 C 124.582031 569.863281 123.925781 569.695312 123.28125 569.5 C 122.632812 569.304688 121.996094 569.074219 121.367188 568.816406 C 120.742188 568.558594 120.132812 568.269531 119.535156 567.949219 C 118.9375 567.628906 118.355469 567.28125 117.792969 566.90625 C 117.230469 566.53125 116.6875 566.125 116.164062 565.695312 C 115.640625 565.265625 115.140625 564.8125 114.660156 564.335938 C 114.179688 563.855469 113.726562 563.355469 113.296875 562.832031 C 112.867188 562.308594 112.464844 561.765625 112.089844 561.199219 C 111.710938 560.636719 111.363281 560.058594 111.046875 559.460938 C 110.726562 558.863281 110.4375 558.25 110.175781 557.625 C 109.917969 557 109.691406 556.363281 109.492188 555.714844 C 109.296875 555.066406 109.132812 554.410156 109 553.746094 C 108.867188 553.082031 108.769531 552.414062 108.703125 551.738281 C 108.636719 551.066406 108.601562 550.390625 108.601562 549.710938 L 108.601562 530.894531 L 701.398438 530.894531 L 701.398438 549.710938 C 701.398438 550.390625 701.363281 551.066406 701.296875 551.738281 C 701.230469 552.414062 701.132812 553.082031 701 553.746094 C 700.867188 554.410156 700.703125 555.066406 700.507812 555.714844 C 700.308594 556.363281 700.082031 557 699.824219 557.625 C 699.5625 558.25 699.273438 558.863281 698.953125 559.460938 C 698.636719 560.058594 698.289062 560.636719 697.910156 561.199219 C 697.535156 561.765625 697.132812 562.308594 696.703125 562.832031 C 696.273438 563.355469 695.820312 563.855469 695.339844 564.335938 C 694.859375 564.8125 694.359375 565.265625 693.835938 565.695312 C 693.3125 566.125 692.769531 566.53125 692.207031 566.90625 C 691.644531 567.28125 691.0625 567.628906 690.464844 567.949219 C 689.867188 568.269531 689.257812 568.558594 688.632812 568.816406 C 688.003906 569.074219 687.367188 569.304688 686.71875 569.5 C 686.074219 569.695312 685.417969 569.863281 684.75 569.992188 C 684.085938 570.125 683.417969 570.226562 682.746094 570.292969 C 682.070312 570.359375 681.394531 570.390625 680.71875 570.390625 Z M 680.71875 570.390625 " fill-opacity="1" fill-rule="nonzero"></path></g></svg>