<svg xmlns="http://www.w3.org/2000/svg" xmlns:xlink="http://www.w3.org/1999/xlink" width="1080" zoomAndPan="magnify" viewBox="0 0 810 809.999993" height="1080" preserveAspectRatio="xMidYMid meet" version="1.0"><defs><clipPath id="4116e82f47"><path d="M 79.222656 81 L 730.972656 81 L 730.972656 729 L 79.222656 729 Z M 79.222656 81 " clip-rule="nonzero"></path></clipPath></defs><g clip-path="url(#4116e82f47)"><path fill="#02308c" d="M 717.949219 360.203125 L 674.714844 360.203125 C 667.929688 319.003906 651.714844 279.863281 627.335938 245.84375 L 657.914062 215.269531 C 662.902344 210.285156 662.902344 202.195312 657.914062 197.207031 L 612.757812 152.046875 C 607.769531 147.0625 599.683594 147.058594 594.695312 152.046875 L 564.117188 182.628906 C 530.097656 158.246094 490.960938 142.03125 449.757812 135.246094 L 449.757812 93.816406 C 449.757812 86.765625 444.042969 81.046875 436.988281 81.046875 C 369.316406 81.070312 373.066406 80.988281 371.84375 81.113281 C 196.027344 101.109375 79.230469 245.664062 79.402344 404.890625 C 79.589844 576.605469 210.542969 712.566406 371.796875 728.882812 C 373.09375 729.015625 369.3125 728.925781 436.988281 728.953125 C 444.042969 728.953125 449.761719 723.234375 449.761719 716.183594 L 449.761719 674.558594 C 490.960938 667.773438 530.101562 651.554688 564.117188 627.175781 L 594.695312 657.753906 C 599.679688 662.738281 607.769531 662.742188 612.757812 657.753906 L 657.917969 612.597656 C 662.902344 607.609375 662.902344 599.519531 657.914062 594.535156 L 627.335938 563.957031 C 651.714844 529.9375 667.933594 490.800781 674.71875 449.597656 L 717.953125 449.597656 C 725.003906 449.597656 730.722656 443.878906 730.722656 436.828125 L 730.722656 372.972656 C 730.722656 365.921875 725.003906 360.203125 717.949219 360.203125 Z M 373.132812 468.757812 C 366.082031 468.757812 360.363281 474.476562 360.363281 481.527344 L 360.363281 648.625 C 303.339844 638.257812 253.578125 608.542969 217.585938 566.839844 L 227.035156 557.390625 C 232.023438 552.402344 232.023438 544.316406 227.035156 539.328125 C 222.046875 534.34375 213.960938 534.34375 208.972656 539.328125 L 201.789062 546.511719 C 175.976562 509.472656 160.070312 465.183594 157.640625 417.671875 L 168.804688 417.671875 C 175.859375 417.671875 181.578125 411.953125 181.578125 404.902344 C 181.578125 397.847656 175.859375 392.128906 168.804688 392.128906 L 157.640625 392.128906 C 160.371094 338.761719 180.101562 289.457031 211.78125 249.929688 L 218.84375 256.992188 C 223.832031 261.980469 231.914062 261.976562 236.90625 256.992188 C 241.890625 252.003906 241.890625 243.917969 236.90625 238.929688 L 228.792969 230.816406 C 263.605469 195.507812 309.042969 170.507812 360.363281 161.179688 L 360.363281 328.273438 C 360.363281 335.328125 366.082031 341.046875 373.132812 341.046875 C 408.34375 341.046875 436.988281 369.691406 436.988281 404.902344 C 436.988281 440.109375 408.34375 468.757812 373.132812 468.757812 Z M 104.953125 405.003906 C 104.863281 258.402344 211.683594 130.582031 360.363281 108.300781 L 360.363281 135.257812 C 229.269531 156.792969 131.761719 270.765625 131.761719 404.902344 C 131.761719 539.476562 229.726562 653.085938 360.363281 674.546875 L 360.363281 701.640625 C 208.144531 677.605469 105.042969 548.945312 104.953125 405.003906 Z M 705.179688 424.058594 L 663.648438 424.058594 C 657.191406 424.058594 651.75 428.875 650.96875 435.28125 C 645.550781 479.726562 628.066406 521.917969 600.417969 557.300781 C 596.445312 562.382812 596.890625 569.632812 601.453125 574.195312 L 630.824219 603.566406 L 603.726562 630.664062 L 574.355469 601.292969 C 569.792969 596.730469 562.546875 596.285156 557.460938 600.257812 C 522.078125 627.90625 479.886719 645.386719 435.441406 650.8125 C 429.035156 651.59375 424.21875 657.03125 424.21875 663.488281 L 424.21875 703.410156 L 385.90625 703.410156 L 385.90625 493.371094 C 429.167969 487.152344 462.53125 449.855469 462.53125 404.902344 C 462.53125 359.945312 429.167969 322.648438 385.90625 316.429688 C 385.90625 294.128906 385.90625 132.375 385.90625 106.589844 L 424.21875 106.589844 L 424.21875 146.316406 C 424.21875 152.773438 429.035156 158.210938 435.441406 158.992188 C 479.886719 164.414062 522.078125 181.894531 557.460938 209.546875 C 562.542969 213.515625 569.792969 213.074219 574.355469 208.511719 L 603.726562 179.140625 L 630.824219 206.238281 L 601.453125 235.609375 C 596.890625 240.171875 596.445312 247.417969 600.417969 252.503906 C 628.066406 287.886719 645.550781 330.078125 650.96875 374.523438 C 651.75 380.929688 657.191406 385.746094 663.648438 385.746094 L 705.179688 385.746094 Z M 705.179688 424.058594 " fill-opacity="1" fill-rule="nonzero"></path></g><path fill="#02308c" d="M 373.132812 366.589844 C 356.484375 366.589844 342.289062 377.265625 337.015625 392.128906 L 219.882812 392.128906 C 212.828125 392.128906 207.109375 397.847656 207.109375 404.902344 C 207.109375 411.953125 212.828125 417.671875 219.882812 417.671875 L 335.914062 417.671875 L 261.933594 491.652344 C 256.945312 496.640625 256.945312 504.726562 261.933594 509.714844 C 266.921875 514.703125 275.007812 514.703125 279.996094 509.714844 L 352.53125 437.179688 C 377.730469 453.320312 411.445312 435.28125 411.445312 404.902344 C 411.445312 383.777344 394.257812 366.589844 373.132812 366.589844 Z M 373.132812 417.671875 C 366.089844 417.671875 360.363281 411.945312 360.363281 404.902344 C 360.363281 397.859375 366.089844 392.128906 373.132812 392.128906 C 380.175781 392.128906 385.90625 397.859375 385.90625 404.902344 C 385.90625 411.941406 380.175781 417.671875 373.132812 417.671875 Z M 373.132812 417.671875 " fill-opacity="1" fill-rule="nonzero"></path></svg>