<svg xmlns="http://www.w3.org/2000/svg" xmlns:xlink="http://www.w3.org/1999/xlink" width="1080" zoomAndPan="magnify" viewBox="0 0 810 809.999993" height="1080" preserveAspectRatio="xMidYMid meet" version="1.0"><defs><clipPath id="b7ec47ed72"><path d="M 486 486 L 729 486 L 729 729 L 486 729 Z M 486 486 " clip-rule="nonzero"></path></clipPath><clipPath id="b8e5945a01"><path d="M 486 81 L 729 81 L 729 324 L 486 324 Z M 486 81 " clip-rule="nonzero"></path></clipPath></defs><path fill="#02308c" d="M 208.472656 674.585938 L 262.9375 729 L 81.027344 729 L 81.027344 547.175781 L 135.492188 601.601562 L 250.152344 486.941406 L 323.183594 559.925781 Z M 208.472656 674.585938 " fill-opacity="1" fill-rule="nonzero"></path><g clip-path="url(#b7ec47ed72)"><path fill="#02308c" d="M 559.90625 486.941406 L 486.960938 559.925781 L 601.628906 674.585938 L 547.203125 729 L 729 729 L 729.027344 547.175781 L 674.605469 601.601562 Z M 559.90625 486.941406 " fill-opacity="1" fill-rule="nonzero"></path></g><g clip-path="url(#b8e5945a01)"><path fill="#02308c" d="M 486.960938 250.171875 L 559.90625 323.15625 L 674.605469 208.410156 L 729.027344 262.828125 L 729.027344 81.085938 L 547.160156 81 L 601.675781 135.511719 Z M 486.960938 250.171875 " fill-opacity="1" fill-rule="nonzero"></path></g><path fill="#02308c" d="M 262.9375 81 L 81.148438 81 L 81.027344 262.914062 L 135.492188 208.410156 L 250.191406 323.15625 L 323.222656 250.089844 L 208.511719 135.511719 Z M 262.9375 81 " fill-opacity="1" fill-rule="nonzero"></path><path fill="#02308c" d="M 405.027344 325.859375 C 361.316406 325.859375 325.886719 361.300781 325.886719 405 C 325.886719 448.792969 361.324219 484.230469 405.027344 484.230469 C 448.734375 484.230469 484.21875 448.792969 484.21875 405 C 484.21875 361.292969 448.734375 325.859375 405.027344 325.859375 Z M 405.027344 325.859375 " fill-opacity="1" fill-rule="nonzero"></path></svg>