<svg xmlns="http://www.w3.org/2000/svg" xmlns:xlink="http://www.w3.org/1999/xlink" width="1080" zoomAndPan="magnify" viewBox="0 0 810 809.999993" height="1080" preserveAspectRatio="xMidYMid meet" version="1.0"><defs><clipPath id="b53c450241"><path d="M 93 81 L 717 81 L 717 729 L 93 729 Z M 93 81 " clip-rule="nonzero"></path></clipPath></defs><g clip-path="url(#b53c450241)"><path fill="#02308c" d="M 422.144531 701.023438 C 429.621094 701.023438 435.683594 707.082031 435.683594 714.558594 C 435.683594 721.414062 430.589844 727.078125 423.984375 727.972656 L 422.144531 728.097656 L 386.046875 728.097656 C 378.570312 728.097656 372.507812 722.035156 372.507812 714.558594 C 372.507812 707.707031 377.601562 702.042969 384.207031 701.144531 L 386.046875 701.023438 Z M 458.246094 664.921875 C 465.722656 664.921875 471.785156 670.984375 471.785156 678.460938 C 471.785156 685.3125 466.691406 690.976562 460.082031 691.875 L 458.246094 691.996094 L 349.945312 691.996094 C 342.46875 691.996094 336.40625 685.9375 336.40625 678.460938 C 336.40625 671.605469 341.5 665.941406 348.109375 665.046875 L 349.945312 664.921875 Z M 476.296875 628.820312 C 483.773438 628.820312 489.832031 634.882812 489.832031 642.359375 C 489.832031 649.210938 484.742188 654.875 478.132812 655.773438 L 476.296875 655.898438 L 331.894531 655.898438 C 324.417969 655.898438 318.355469 649.835938 318.355469 642.359375 C 318.355469 635.503906 323.449219 629.839844 330.058594 628.945312 L 331.894531 628.820312 Z M 404.09375 213.667969 C 501.292969 213.667969 580.085938 292.460938 580.085938 389.65625 C 580.085938 431.152344 555.34375 476.007812 506.894531 524.761719 C 496.886719 534.832031 490.902344 548.15625 489.972656 562.238281 L 489.84375 566.097656 L 489.835938 597.246094 C 489.828125 608.917969 480.953125 618.519531 469.578125 619.679688 L 467.269531 619.796875 L 340.917969 619.796875 C 329.238281 619.796875 319.628906 610.917969 318.472656 599.542969 L 318.355469 597.234375 L 318.355469 566.117188 C 318.355469 550.621094 312.226562 535.753906 301.300781 524.765625 C 252.847656 476.011719 228.105469 431.15625 228.105469 389.65625 C 228.105469 292.460938 306.898438 213.667969 404.09375 213.667969 Z M 242.132812 536.488281 C 246.980469 541.332031 247.382812 548.9375 243.34375 554.246094 L 242.132812 555.632812 L 203.84375 593.921875 C 198.558594 599.207031 189.984375 599.207031 184.699219 593.921875 C 179.851562 589.074219 179.449219 581.46875 183.488281 576.164062 L 184.699219 574.777344 L 222.988281 536.488281 C 228.273438 531.199219 236.847656 531.199219 242.132812 536.488281 Z M 585.359375 535.273438 L 586.746094 536.488281 L 625.035156 574.777344 C 630.320312 580.0625 630.320312 588.632812 625.035156 593.921875 C 620.1875 598.769531 612.582031 599.171875 607.277344 595.132812 L 605.890625 593.921875 L 567.597656 555.632812 C 562.3125 550.34375 562.3125 541.773438 567.597656 536.488281 C 572.445312 531.640625 580.050781 531.234375 585.359375 535.273438 Z M 404.09375 240.742188 C 321.851562 240.742188 255.183594 307.414062 255.183594 389.65625 C 255.183594 422.660156 276.613281 461.511719 320.503906 505.679688 C 335.40625 520.671875 344.203125 540.597656 345.3125 561.597656 L 345.429688 566.117188 L 345.414062 592.722656 L 462.757812 592.722656 L 462.769531 566.089844 C 462.773438 546.46875 469.503906 527.542969 481.6875 512.390625 L 484.59375 508.964844 L 487.691406 505.675781 C 531.582031 461.511719 553.007812 422.660156 553.007812 389.65625 C 553.007812 307.414062 486.339844 240.742188 404.09375 240.742188 Z M 161.191406 360.214844 C 168.667969 360.214844 174.726562 366.277344 174.726562 373.753906 C 174.726562 380.605469 169.632812 386.269531 163.027344 387.167969 L 161.191406 387.289062 L 107.039062 387.289062 C 99.5625 387.289062 93.5 381.230469 93.5 373.753906 C 93.5 366.898438 98.59375 361.234375 105.203125 360.339844 L 107.039062 360.214844 Z M 702.695312 360.214844 C 710.171875 360.214844 716.230469 366.277344 716.230469 373.753906 C 716.230469 380.605469 711.136719 386.269531 704.53125 387.167969 L 702.695312 387.289062 L 648.542969 387.289062 C 641.066406 387.289062 635.003906 381.230469 635.003906 373.753906 C 635.003906 366.898438 640.097656 361.234375 646.707031 360.339844 L 648.542969 360.214844 Z M 422.144531 267.820312 C 479.464844 267.820312 525.933594 314.285156 525.933594 371.605469 C 525.933594 379.082031 519.871094 385.144531 512.394531 385.144531 C 504.917969 385.144531 498.859375 379.082031 498.859375 371.605469 C 498.859375 329.238281 464.511719 294.894531 422.144531 294.894531 C 414.667969 294.894531 408.609375 288.832031 408.609375 281.355469 C 408.609375 273.878906 414.667969 267.820312 422.144531 267.820312 Z M 202.457031 152.375 L 203.84375 153.585938 L 242.132812 191.875 C 247.421875 197.160156 247.421875 205.734375 242.132812 211.019531 C 237.289062 215.867188 229.679688 216.269531 224.375 212.230469 L 222.988281 211.019531 L 184.699219 172.730469 C 179.410156 167.445312 179.410156 158.871094 184.699219 153.585938 C 189.542969 148.738281 197.152344 148.335938 202.457031 152.375 Z M 625.035156 153.585938 C 629.882812 158.429688 630.285156 166.039062 626.246094 171.34375 L 625.035156 172.730469 L 586.746094 211.019531 C 581.457031 216.308594 572.886719 216.308594 567.597656 211.019531 C 562.753906 206.175781 562.347656 198.566406 566.386719 193.261719 L 567.597656 191.875 L 605.890625 153.585938 C 611.175781 148.296875 619.746094 148.296875 625.035156 153.585938 Z M 404.867188 80.4375 C 411.71875 80.4375 417.382812 85.53125 418.28125 92.140625 L 418.402344 93.976562 L 418.402344 148.125 C 418.402344 155.601562 412.34375 161.664062 404.867188 161.664062 C 398.011719 161.664062 392.347656 156.570312 391.453125 149.964844 L 391.328125 148.125 L 391.328125 93.976562 C 391.328125 86.5 397.390625 80.4375 404.867188 80.4375 Z M 404.867188 80.4375 " fill-opacity="1" fill-rule="nonzero"></path></g></svg>