<?xml version="1.0" encoding="utf-8"?>
<!-- Generator: Adobe Illustrator 21.1.0, SVG Export Plug-In . SVG Version: 6.00 Build 0)  -->
<svg version="1.1" id="Ebene_1" xmlns="http://www.w3.org/2000/svg" xmlns:xlink="http://www.w3.org/1999/xlink" x="0px" y="0px"
	 viewBox="0 0 746.2 125.8" style="enable-background:new 0 0 746.2 125.8;" xml:space="preserve">
<style type="text/css">
	.st0{fill:#FFFFFF;}
</style>
<title>PIXFORMANCE Logo RZ RGB</title>
<g>
	<path class="st0" d="M47.1,47.1h13.2c7.2,0,11.1,4.3,11.1,10.1s-3.9,10.1-11.1,10.1h-9.1v11.2h-4.1V47.1z M51.2,50.7v13.1h9.1
		c4.6,0,6.9-2.7,6.9-6.5s-2.4-6.6-7-6.6L51.2,50.7z"/>
	<path class="st0" d="M109.8,47.1h4.1v31.4h-4.1V47.1z"/>
	<path class="st0" d="M219.6,47.1h22.2v3.6h-18.1V62h14.4v3.4h-14.4v13.1h-4.1V47.1z"/>
	<path class="st0" d="M292.1,46.4c9.2,0,16.1,7,16.1,16.4s-6.9,16.4-16.1,16.4s-16.1-7-16.1-16.4S282.8,46.4,292.1,46.4z
		 M292.1,75.4c7,0,11.8-5.4,11.8-12.6s-4.8-12.6-11.8-12.6s-11.8,5.4-11.8,12.6S285,75.4,292.1,75.4L292.1,75.4z"/>
	<path class="st0" d="M346.6,47.1h13.6c7,0,10.8,3.5,10.8,9.3c0,4.9-2.7,8.4-7.7,9.4l8.9,12.8h-4.6L359,66h-8.3v12.5h-4.1
		L346.6,47.1z M350.8,50.7v11.8h9.5c4.5,0,6.6-2.4,6.6-6s-2.3-5.7-6.6-5.7L350.8,50.7z"/>
	<path class="st0" d="M410.6,47.1h4.5l11.7,17.5l11.7-17.5h4.5v31.4h-4.1l0.2-25.3l-10.9,16.1h-2.7l-10.9-16.1l0.2,25.3h-4.1V47.1z"
		/>
	<path class="st0" d="M491.6,47.1h4.8l12.3,31.4h-4.3l-3.3-8.5h-14.6l-3.3,8.5h-4.1L491.6,47.1z M493.8,51.3l-5.9,15.3h12L494,51.3
		L493.8,51.3z"/>
	<path class="st0" d="M545,47.1h3.8l18.5,24.6h0.1l-0.1-24.7h4.1v31.4h-3.8l-18.5-24.7h-0.2l0.2,24.7H545V47.1z"/>
	<path class="st0" d="M626.4,46.4c4.7,0,9.3,1.9,12,5.3l-2.8,2.6c-2.2-2.7-5.6-4.3-9.1-4.2c-7.4,0-12.1,5.3-12.1,12.6
		s4.7,12.6,12,12.6c3.5,0.1,6.9-1.4,9.1-4.2l2.8,2.6c-2.7,3.4-7.2,5.3-12,5.3c-9.8,0-16.4-7.2-16.4-16.4S616.5,46.4,626.4,46.4z"/>
	<path class="st0" d="M676.2,47.1h22.4v3.6h-18.3v10.1h14.9v3.4h-14.9v10.8h18.8v3.6h-22.9V47.1z"/>
	<path class="st0" d="M130.5,100.9L130.5,100.9c-0.8-0.7-0.9-1.8-0.2-2.6l78.5-80.7c0.8-0.7,2-0.6,2.7,0.1c0,0,0,0,0,0l0,0
		c0.8,0.7,0.9,1.8,0.2,2.6l-78.5,80.7C132.4,101.8,131.2,101.7,130.5,100.9C130.5,100.9,130.5,100.9,130.5,100.9z"/>
	<path class="st0" d="M170.4,70.5l37.3,36.8c0.8,0.7,1.9,0.6,2.6-0.1l0,0c0.7-0.7,0.8-1.8,0.1-2.6L173,67.7L170.4,70.5z"/>
	<path class="st0" d="M163.4,56.7L143,36.9c-0.8-0.7-2-0.6-2.6,0.2l0,0c-0.8,0.7-0.8,1.9-0.1,2.6l20.4,19.8L163.4,56.7z"/>
</g>
</svg>
