<svg xmlns="http://www.w3.org/2000/svg" xmlns:xlink="http://www.w3.org/1999/xlink" width="1080" zoomAndPan="magnify" viewBox="0 0 810 817.92" height="1080" preserveAspectRatio="xMidYMid meet" version="1.0"><defs><clipPath id="379362789e"><path d="M 593 201 L 728.96875 201 L 728.96875 335 L 593 335 Z M 593 201 " clip-rule="nonzero"></path></clipPath><clipPath id="ca0e005557"><path d="M 81.03125 127 L 661 127 L 661 724.730469 L 81.03125 724.730469 Z M 81.03125 127 " clip-rule="nonzero"></path></clipPath><clipPath id="c80b67a891"><path d="M 398 85.042969 L 486 85.042969 L 486 186 L 398 186 Z M 398 85.042969 " clip-rule="nonzero"></path></clipPath></defs><path fill="#ffffff" d="M 374.53125 435.96875 C 318.355469 435.96875 272.519531 390.265625 272.519531 333.953125 C 272.519531 277.644531 318.21875 231.941406 374.53125 231.941406 C 430.84375 231.941406 476.546875 277.644531 476.546875 333.953125 C 476.546875 390.265625 430.707031 435.96875 374.53125 435.96875 Z M 374.53125 253.839844 C 330.328125 253.839844 294.28125 289.75 294.28125 334.089844 C 294.28125 378.433594 330.191406 414.339844 374.53125 414.339844 C 418.875 414.339844 454.78125 378.433594 454.78125 334.089844 C 454.78125 289.75 418.738281 253.839844 374.53125 253.839844 Z M 374.53125 253.839844 " fill-opacity="1" fill-rule="nonzero"></path><path fill="#ffffff" d="M 532.992188 619.046875 L 216.207031 619.046875 C 210.222656 619.046875 205.324219 614.152344 205.324219 608.167969 L 205.324219 583.410156 C 205.324219 490.101562 281.222656 414.070312 374.53125 414.070312 C 419.691406 414.070312 462.261719 431.75 494.226562 463.714844 C 526.191406 495.679688 543.875 538.117188 543.875 583.410156 L 543.875 608.167969 C 543.875 614.289062 538.976562 619.046875 532.992188 619.046875 Z M 227.089844 597.285156 L 522.113281 597.285156 L 522.113281 583.410156 C 522.113281 543.964844 506.742188 506.96875 478.859375 479.085938 C 450.972656 451.203125 413.976562 435.832031 374.53125 435.832031 C 293.191406 435.832031 227.089844 501.9375 227.089844 583.273438 Z M 227.089844 597.285156 " fill-opacity="1" fill-rule="nonzero"></path><path fill="#ffffff" d="M 459.542969 619.046875 C 453.558594 619.046875 448.660156 614.152344 448.660156 608.167969 L 448.660156 571.984375 C 448.660156 566 453.558594 561.105469 459.542969 561.105469 C 465.527344 561.105469 470.425781 566 470.425781 571.984375 L 470.425781 608.167969 C 470.425781 614.289062 465.527344 619.046875 459.542969 619.046875 Z M 459.542969 619.046875 " fill-opacity="1" fill-rule="nonzero"></path><path fill="#ffffff" d="M 289.65625 619.046875 C 283.671875 619.046875 278.777344 614.152344 278.777344 608.167969 L 278.777344 571.984375 C 278.777344 566 283.671875 561.105469 289.65625 561.105469 C 295.640625 561.105469 300.539062 566 300.539062 571.984375 L 300.539062 608.167969 C 300.539062 614.289062 295.640625 619.046875 289.65625 619.046875 Z M 289.65625 619.046875 " fill-opacity="1" fill-rule="nonzero"></path><path fill="#ffffff" d="M 603.585938 333.136719 C 601.410156 333.136719 599.097656 332.457031 597.191406 331.097656 C 569.308594 310.96875 552.578125 278.460938 552.578125 244.046875 C 552.578125 209.632812 569.171875 177.125 597.191406 156.996094 C 601 154.273438 606.171875 154.273438 609.980469 156.996094 C 637.863281 177.125 654.59375 209.769531 654.59375 244.046875 C 654.59375 278.324219 637.863281 310.96875 609.980469 331.097656 C 608.074219 332.457031 605.761719 333.136719 603.585938 333.136719 Z M 603.585938 179.574219 C 585.222656 195.761719 574.34375 219.292969 574.34375 243.910156 C 574.34375 268.53125 585.085938 292.0625 603.585938 308.246094 C 621.949219 292.0625 632.828125 268.53125 632.828125 243.910156 C 632.828125 219.292969 621.949219 195.761719 603.585938 179.574219 Z M 603.585938 179.574219 " fill-opacity="1" fill-rule="nonzero"></path><g clip-path="url(#379362789e)"><path fill="#ffffff" d="M 621.40625 334.632812 C 615.011719 334.632812 608.484375 334.089844 602.089844 332.867188 C 597.328125 332.050781 593.792969 328.105469 593.25 323.34375 L 593.25 323.074219 C 592.570312 317.089844 596.921875 311.785156 602.90625 311.101562 C 604.808594 310.832031 606.714844 311.238281 608.347656 311.917969 C 634.597656 316 661.53125 307.566406 680.707031 289.203125 C 698.527344 272.066406 708.046875 248.128906 706.960938 223.644531 C 686.421875 221.875 665.746094 227.589844 649.152344 239.695312 C 644.253906 243.230469 637.453125 242.140625 633.917969 237.382812 C 630.382812 232.621094 631.46875 225.683594 636.230469 222.148438 C 659.898438 204.875 689.957031 198.074219 718.929688 203.378906 C 723.554688 204.195312 727.089844 207.867188 727.769531 212.625 C 732.53125 246.765625 720.5625 281.316406 695.804688 305.117188 C 675.675781 324.160156 648.878906 334.632812 621.40625 334.632812 Z M 621.40625 334.632812 " fill-opacity="1" fill-rule="nonzero"></path></g><path fill="#ffffff" d="M 585.769531 334.632812 C 558.292969 334.632812 531.496094 324.023438 511.367188 304.847656 C 486.609375 281.042969 474.640625 246.496094 479.402344 212.355469 C 480.082031 207.730469 483.617188 204.058594 488.242188 203.105469 C 517.078125 197.800781 547.273438 204.601562 570.941406 221.875 C 575.839844 225.414062 576.925781 232.214844 573.253906 237.109375 C 569.71875 242.007812 562.917969 243.09375 558.019531 239.421875 C 541.425781 227.316406 520.613281 221.605469 500.210938 223.371094 C 499.125 247.855469 508.644531 271.929688 526.464844 288.933594 C 545.777344 307.429688 572.710938 315.863281 599.097656 311.648438 C 600.730469 310.96875 602.496094 310.695312 604.402344 310.832031 C 610.386719 311.511719 614.738281 316.816406 614.058594 322.800781 L 614.058594 323.074219 C 613.515625 327.832031 609.980469 331.777344 605.21875 332.730469 C 598.6875 334.089844 592.160156 334.632812 585.769531 334.632812 Z M 585.769531 334.632812 " fill-opacity="1" fill-rule="nonzero"></path><g clip-path="url(#ca0e005557)"><path fill="#ffffff" d="M 380.378906 724.871094 C 345.152344 724.871094 309.921875 718.613281 275.917969 705.964844 C 201.109375 678.078125 141.667969 622.855469 108.480469 550.222656 C 75.292969 477.589844 72.4375 396.523438 100.183594 321.710938 C 127.660156 248.128906 181.792969 189.230469 252.796875 155.769531 C 323.796875 122.445312 403.503906 118.09375 477.496094 143.664062 C 483.210938 145.570312 486.203125 151.828125 484.296875 157.539062 C 482.394531 163.253906 476.136719 166.246094 470.425781 164.203125 C 329.511719 115.507812 172.546875 189.503906 120.585938 329.328125 C 94.742188 398.699219 97.464844 473.917969 128.203125 541.109375 C 158.945312 608.300781 214.03125 659.582031 283.398438 685.425781 C 352.769531 711.269531 427.988281 708.546875 495.179688 677.808594 C 562.507812 647.066406 613.652344 591.980469 639.496094 522.609375 C 641.535156 517.035156 647.792969 514.179688 653.503906 516.21875 C 659.082031 518.257812 661.9375 524.515625 659.898438 530.226562 C 632.015625 605.039062 576.789062 664.476562 504.15625 697.667969 C 464.710938 715.890625 422.546875 724.871094 380.378906 724.871094 Z M 380.378906 724.871094 " fill-opacity="1" fill-rule="nonzero"></path></g><g clip-path="url(#c80b67a891)"><path fill="#ffffff" d="M 409.761719 185.695312 C 405.136719 185.695312 400.917969 182.703125 399.421875 178.214844 C 397.519531 172.5 400.648438 166.378906 406.496094 164.476562 L 457.773438 147.882812 L 429.753906 101.636719 C 426.625 96.46875 428.257812 89.800781 433.429688 86.675781 C 438.597656 83.546875 445.261719 85.175781 448.390625 90.347656 L 483.617188 148.289062 C 485.386719 151.144531 485.660156 154.683594 484.570312 157.675781 C 483.480469 160.667969 480.898438 163.253906 477.769531 164.203125 L 413.296875 185.015625 C 411.9375 185.558594 410.847656 185.695312 409.761719 185.695312 Z M 409.761719 185.695312 " fill-opacity="1" fill-rule="nonzero"></path></g></svg>