<svg xmlns="http://www.w3.org/2000/svg" xmlns:xlink="http://www.w3.org/1999/xlink" width="1080" zoomAndPan="magnify" viewBox="0 0 810 817.92" height="1080" preserveAspectRatio="xMidYMid meet" version="1.0"><defs><clipPath id="b590fc545d"><path d="M 81.03125 146 L 661 146 L 661 728.929688 L 81.03125 728.929688 Z M 81.03125 146 " clip-rule="nonzero"></path></clipPath><clipPath id="54763efe69"><path d="M 387 80.992188 L 728.96875 80.992188 L 728.96875 423 L 387 423 Z M 387 80.992188 " clip-rule="nonzero"></path></clipPath></defs><g clip-path="url(#b590fc545d)"><path fill="#ffffff" d="M 643.714844 456.113281 C 634.164062 456.113281 626.664062 463.617188 626.664062 473.164062 L 626.664062 609.570312 C 626.664062 656.632812 588.46875 694.828125 541.40625 694.828125 L 490.253906 694.828125 L 490.253906 541.367188 C 490.253906 494.308594 452.0625 456.113281 405 456.113281 L 336.796875 456.113281 C 289.734375 456.113281 251.542969 494.308594 251.542969 541.367188 L 251.542969 694.828125 L 200.386719 694.828125 C 153.328125 694.828125 115.132812 656.632812 115.132812 609.570312 L 115.132812 387.910156 C 115.132812 361.308594 127.75 335.734375 149.234375 319.707031 L 319.746094 191.824219 C 326.90625 186.707031 334.410156 182.617188 342.59375 179.546875 C 351.460938 176.476562 356.234375 166.589844 352.824219 157.722656 C 349.753906 148.855469 339.867188 144.082031 331 147.492188 C 319.746094 151.582031 308.832031 157.378906 299.285156 164.542969 L 128.773438 292.425781 C 98.765625 314.929688 81.03125 350.738281 81.03125 387.910156 L 81.03125 609.570312 C 81.03125 675.386719 134.570312 728.929688 200.386719 728.929688 L 541.40625 728.929688 C 607.222656 728.929688 660.765625 675.386719 660.765625 609.570312 L 660.765625 473.164062 C 660.765625 463.617188 653.261719 456.113281 643.714844 456.113281 Z M 285.644531 694.828125 L 285.644531 541.367188 C 285.644531 513.0625 308.492188 490.214844 336.796875 490.214844 L 405 490.214844 C 433.304688 490.214844 456.152344 513.0625 456.152344 541.367188 L 456.152344 694.828125 Z M 285.644531 694.828125 " fill-opacity="1" fill-rule="nonzero"></path></g><g clip-path="url(#54763efe69)"><path fill="#ffffff" d="M 677.816406 183.296875 L 643.714844 183.296875 C 634.164062 183.296875 626.664062 175.796875 626.664062 166.246094 L 626.664062 132.144531 C 626.664062 103.839844 603.8125 80.992188 575.507812 80.992188 L 541.40625 80.992188 C 513.101562 80.992188 490.253906 103.839844 490.253906 132.144531 L 490.253906 166.246094 C 490.253906 175.796875 482.753906 183.296875 473.203125 183.296875 L 439.101562 183.296875 C 410.796875 183.296875 387.949219 206.144531 387.949219 234.449219 L 387.949219 268.550781 C 387.949219 296.855469 410.796875 319.707031 439.101562 319.707031 L 473.203125 319.707031 C 482.753906 319.707031 490.253906 327.207031 490.253906 336.757812 L 490.253906 370.859375 C 490.253906 399.164062 513.101562 422.011719 541.40625 422.011719 L 575.507812 422.011719 C 603.8125 422.011719 626.664062 399.164062 626.664062 370.859375 L 626.664062 336.757812 C 626.664062 327.207031 634.164062 319.707031 643.714844 319.707031 L 677.816406 319.707031 C 706.121094 319.707031 728.96875 296.855469 728.96875 268.550781 L 728.96875 234.449219 C 728.96875 206.144531 706.121094 183.296875 677.816406 183.296875 Z M 694.867188 268.550781 C 694.867188 278.101562 687.363281 285.605469 677.816406 285.605469 L 643.714844 285.605469 C 615.410156 285.605469 592.558594 308.453125 592.558594 336.757812 L 592.558594 370.859375 C 592.558594 380.40625 585.058594 387.910156 575.507812 387.910156 L 541.40625 387.910156 C 531.859375 387.910156 524.355469 380.40625 524.355469 370.859375 L 524.355469 336.757812 C 524.355469 308.453125 501.507812 285.605469 473.203125 285.605469 L 439.101562 285.605469 C 429.554688 285.605469 422.050781 278.101562 422.050781 268.550781 L 422.050781 234.449219 C 422.050781 224.902344 429.554688 217.398438 439.101562 217.398438 L 473.203125 217.398438 C 501.507812 217.398438 524.355469 194.550781 524.355469 166.246094 L 524.355469 132.144531 C 524.355469 122.597656 531.859375 115.09375 541.40625 115.09375 L 575.507812 115.09375 C 585.058594 115.09375 592.558594 122.597656 592.558594 132.144531 L 592.558594 166.246094 C 592.558594 194.550781 615.410156 217.398438 643.714844 217.398438 L 677.816406 217.398438 C 687.363281 217.398438 694.867188 224.902344 694.867188 234.449219 Z M 694.867188 268.550781 " fill-opacity="1" fill-rule="nonzero"></path></g></svg>