<svg xmlns="http://www.w3.org/2000/svg" xmlns:xlink="http://www.w3.org/1999/xlink" width="1080" zoomAndPan="magnify" viewBox="0 0 810 817.92" height="1080" preserveAspectRatio="xMidYMid meet" version="1.0"><defs><clipPath id="e0010d4dc4"><path d="M 81.03125 80.992188 L 728.96875 80.992188 L 728.96875 728.929688 L 81.03125 728.929688 Z M 81.03125 80.992188 " clip-rule="nonzero"></path></clipPath></defs><g clip-path="url(#e0010d4dc4)"><path fill="#ffffff" d="M 608.9375 383.023438 L 608.9375 314.425781 C 608.9375 290.925781 589.824219 271.8125 566.324219 271.8125 L 540.757812 271.8125 C 537.828125 271.8125 535.125 273.398438 533.714844 275.949219 C 529.679688 283.210938 516.492188 291.019531 497.109375 291.019531 C 477.726562 291.019531 464.539062 283.210938 460.503906 275.949219 C 459.078125 273.398438 456.378906 271.8125 453.460938 271.8125 L 441.199219 271.8125 C 432.585938 271.8125 424.816406 275.035156 418.710938 281.125 L 392.015625 307.824219 L 381.460938 301.707031 C 377.964844 299.675781 373.515625 300.550781 371.042969 303.75 C 364.175781 312.621094 349.925781 318.363281 334.75 318.363281 C 319.570312 318.363281 305.324219 312.636719 298.453125 303.75 C 295.980469 300.550781 291.53125 299.691406 288.035156 301.707031 L 205.082031 349.738281 C 202.59375 351.175781 201.0625 353.839844 201.0625 356.714844 L 201.0625 455.328125 C 201.0625 466.785156 208.546875 476.503906 218.871094 479.902344 L 218.871094 691.839844 L 210.027344 691.839844 C 205.578125 691.839844 201.960938 695.457031 201.960938 699.90625 L 201.960938 720.863281 C 201.960938 725.3125 205.578125 728.929688 210.027344 728.929688 L 243.847656 728.929688 C 248.296875 728.929688 251.914062 725.3125 251.914062 720.863281 L 251.914062 699.90625 C 251.914062 695.457031 248.296875 691.839844 243.847656 691.839844 L 235.003906 691.839844 L 235.003906 479.902344 C 245.328125 476.503906 252.816406 466.785156 252.816406 455.328125 L 252.816406 385.738281 L 262.023438 380.414062 L 262.023438 720.863281 C 262.023438 725.3125 265.640625 728.929688 270.089844 728.929688 L 323.175781 728.929688 C 327.625 728.929688 331.238281 725.3125 331.238281 720.863281 L 331.238281 504.851562 L 338.285156 504.851562 L 338.285156 583.316406 C 338.285156 602.40625 353.808594 617.933594 372.898438 617.933594 C 391.988281 617.933594 407.515625 602.40625 407.515625 583.316406 L 407.515625 380.402344 L 416.722656 385.722656 L 416.722656 455.328125 C 416.722656 461.3125 418.777344 466.796875 422.191406 471.179688 L 422.191406 684.125 C 422.191406 688.574219 425.808594 692.191406 430.257812 692.191406 L 483.34375 692.191406 C 487.792969 692.191406 491.410156 688.574219 491.410156 684.125 L 491.410156 482.644531 L 500.683594 482.644531 L 500.683594 720.863281 C 500.683594 725.3125 504.300781 728.929688 508.75 728.929688 L 561.835938 728.929688 C 566.285156 728.929688 569.902344 725.3125 569.902344 720.863281 L 569.902344 426.964844 C 591.839844 424.386719 608.9375 405.671875 608.9375 383.023438 Z M 235.785156 712.796875 L 218.09375 712.796875 L 218.09375 707.972656 L 235.785156 707.972656 Z M 226.9375 465.074219 C 221.5625 465.074219 217.191406 460.707031 217.191406 455.328125 L 217.191406 453.878906 L 236.671875 453.878906 L 236.671875 455.328125 C 236.683594 460.707031 232.316406 465.074219 226.9375 465.074219 Z M 403.46875 359.429688 C 400.96875 357.992188 397.890625 357.976562 395.402344 359.417969 C 392.902344 360.855469 391.367188 363.515625 391.367188 366.40625 L 391.367188 583.304688 C 391.367188 593.492188 383.074219 601.789062 372.886719 601.789062 C 362.695312 601.789062 354.402344 593.492188 354.402344 583.304688 L 354.402344 496.773438 C 354.402344 492.324219 350.785156 488.707031 346.335938 488.707031 L 323.160156 488.707031 C 318.710938 488.707031 315.09375 492.324219 315.09375 496.773438 L 315.09375 712.796875 L 278.140625 712.796875 L 278.140625 366.40625 C 278.140625 363.53125 276.59375 360.855469 274.109375 359.417969 C 271.609375 357.976562 268.53125 357.976562 266.042969 359.429688 L 240.703125 374.097656 C 238.214844 375.535156 236.683594 378.195312 236.683594 381.074219 L 236.683594 437.734375 L 217.207031 437.734375 L 217.207031 361.351562 L 290.574219 318.875 C 301.15625 328.621094 317.421875 334.46875 334.777344 334.46875 C 352.128906 334.46875 368.394531 328.621094 378.976562 318.875 L 452.34375 361.351562 L 452.34375 378.007812 C 443.566406 382.148438 437.476562 391.0625 437.476562 401.398438 C 437.476562 411.855469 443.703125 421.105469 452.34375 425.125 L 452.34375 455.316406 C 452.34375 460.695312 447.976562 465.0625 442.597656 465.0625 C 437.222656 465.0625 432.851562 460.695312 432.851562 455.316406 L 432.851562 381.058594 C 432.851562 378.183594 431.320312 375.519531 428.832031 374.082031 Z M 516.789062 712.796875 L 516.789062 474.578125 C 516.789062 470.128906 513.171875 466.515625 508.722656 466.515625 L 483.316406 466.515625 C 478.867188 466.515625 475.25 470.128906 475.25 474.578125 L 475.25 676.058594 L 438.296875 676.058594 L 438.296875 480.832031 C 439.695312 481.058594 441.105469 481.21875 442.570312 481.21875 C 456.835938 481.21875 468.449219 469.621094 468.449219 455.34375 L 468.449219 427.289062 L 553.742188 427.289062 L 553.742188 712.796875 Z M 592.808594 383.023438 C 592.808594 398.535156 580.183594 411.15625 564.671875 411.15625 L 461.847656 411.15625 C 458.097656 411.15625 453.566406 406.816406 453.566406 401.410156 C 453.566406 396.035156 457.9375 391.664062 463.3125 391.664062 L 561.808594 391.664062 C 566.257812 391.664062 569.875 388.050781 569.875 383.601562 L 569.875 336.941406 C 569.875 332.492188 566.257812 328.875 561.808594 328.875 C 557.359375 328.875 553.742188 332.492188 553.742188 336.941406 L 553.742188 375.535156 L 468.449219 375.535156 L 468.449219 356.714844 C 468.449219 353.839844 466.917969 351.175781 464.429688 349.738281 L 438.378906 334.65625 L 447.695312 325.339844 C 450.839844 322.195312 450.839844 317.085938 447.695312 313.941406 C 444.546875 310.792969 439.441406 310.792969 436.28125 313.941406 L 423.925781 326.292969 L 406.480469 316.183594 L 430.125 292.539062 C 433.214844 289.449219 436.832031 287.957031 441.199219 287.957031 L 449.160156 287.957031 C 458.355469 299.757812 476.515625 307.179688 497.109375 307.179688 C 517.703125 307.179688 535.863281 299.773438 545.058594 287.957031 L 566.324219 287.957031 C 580.925781 287.957031 592.808594 299.839844 592.808594 314.4375 Z M 278.4375 253.140625 C 278.4375 284.191406 303.695312 309.449219 334.75 309.449219 C 365.800781 309.449219 391.058594 284.191406 391.058594 253.140625 C 391.058594 222.085938 365.800781 196.828125 334.75 196.828125 C 303.695312 196.828125 278.4375 222.085938 278.4375 253.140625 Z M 374.941406 253.140625 C 374.941406 275.292969 356.914062 293.320312 334.761719 293.320312 C 312.609375 293.320312 294.582031 275.292969 294.582031 253.140625 C 294.582031 230.984375 312.609375 212.957031 334.761719 212.957031 C 356.914062 212.957031 374.941406 230.972656 374.941406 253.140625 Z M 497.109375 168.382812 C 466.054688 168.382812 440.796875 193.640625 440.796875 224.695312 C 440.796875 255.746094 466.054688 281.003906 497.109375 281.003906 C 528.160156 281.003906 553.421875 255.746094 553.421875 224.695312 C 553.421875 193.640625 528.160156 168.382812 497.109375 168.382812 Z M 497.109375 264.886719 C 474.957031 264.886719 456.929688 246.859375 456.929688 224.707031 C 456.929688 202.554688 474.957031 184.527344 497.109375 184.527344 C 519.261719 184.527344 537.289062 202.554688 537.289062 224.707031 C 537.289062 246.859375 519.261719 264.886719 497.109375 264.886719 Z M 97.164062 404.960938 C 97.164062 484.757812 127.558594 560.398438 182.765625 617.972656 C 185.84375 621.1875 185.738281 626.292969 182.523438 629.371094 C 180.964844 630.878906 178.949219 631.617188 176.945312 631.617188 C 174.820312 631.617188 172.710938 630.785156 171.125 629.128906 C 113.023438 568.542969 81.03125 488.921875 81.03125 404.960938 C 81.03125 318.429688 114.734375 237.074219 175.921875 175.882812 C 237.113281 114.691406 318.46875 80.992188 405 80.992188 C 468.328125 80.992188 529.117188 99.074219 581.703125 133.390625 L 577.226562 99.515625 C 576.648438 95.09375 579.753906 91.046875 584.164062 90.46875 C 588.585938 89.890625 592.632812 92.996094 593.210938 97.40625 L 600.066406 149.335938 C 600.644531 153.757812 597.539062 157.804688 593.128906 158.382812 L 541.199219 165.238281 C 540.839844 165.292969 540.488281 165.304688 540.140625 165.304688 C 536.160156 165.304688 532.691406 162.347656 532.152344 158.300781 C 531.578125 153.878906 534.679688 149.832031 539.089844 149.253906 L 570.15625 145.152344 C 520.835938 113.683594 464.09375 97.125 405 97.125 C 235.257812 97.125 97.164062 235.21875 97.164062 404.960938 Z M 728.96875 404.960938 C 728.96875 498.976562 688.183594 588.238281 617.085938 649.859375 C 615.566406 651.175781 613.683594 651.835938 611.800781 651.835938 C 609.542969 651.835938 607.296875 650.894531 605.699219 649.050781 C 602.78125 645.691406 603.144531 640.597656 606.503906 637.679688 C 674.082031 579.109375 712.835938 494.285156 712.835938 404.960938 C 712.835938 400.511719 716.453125 396.894531 720.902344 396.894531 C 725.351562 396.894531 728.96875 400.511719 728.96875 404.960938 Z M 720.902344 195.308594 L 695.308594 195.308594 L 695.308594 169.714844 C 695.308594 165.265625 691.691406 161.648438 687.242188 161.648438 L 642.355469 161.648438 C 637.90625 161.648438 634.292969 165.265625 634.292969 169.714844 L 634.292969 195.308594 L 608.695312 195.308594 C 604.246094 195.308594 600.632812 198.925781 600.632812 203.375 L 600.632812 248.257812 C 600.632812 252.707031 604.246094 256.324219 608.695312 256.324219 L 634.292969 256.324219 L 634.292969 281.917969 C 634.292969 286.371094 637.90625 289.984375 642.355469 289.984375 L 687.242188 289.984375 C 691.691406 289.984375 695.308594 286.371094 695.308594 281.917969 L 695.308594 256.324219 L 720.902344 256.324219 C 725.351562 256.324219 728.96875 252.707031 728.96875 248.257812 L 728.96875 203.375 C 728.96875 198.925781 725.351562 195.308594 720.902344 195.308594 Z M 712.835938 240.195312 L 687.242188 240.195312 C 682.792969 240.195312 679.175781 243.808594 679.175781 248.257812 L 679.175781 273.855469 L 650.421875 273.855469 L 650.421875 248.257812 C 650.421875 243.808594 646.808594 240.195312 642.355469 240.195312 L 616.761719 240.195312 L 616.761719 211.441406 L 642.355469 211.441406 C 646.808594 211.441406 650.421875 207.824219 650.421875 203.375 L 650.421875 177.78125 L 679.175781 177.78125 L 679.175781 203.375 C 679.175781 207.824219 682.792969 211.441406 687.242188 211.441406 L 712.835938 211.441406 Z M 712.835938 240.195312 " fill-opacity="1" fill-rule="nonzero"></path></g></svg>