<svg xmlns="http://www.w3.org/2000/svg" xmlns:xlink="http://www.w3.org/1999/xlink" width="1080" zoomAndPan="magnify" viewBox="0 0 810 817.92" height="1080" preserveAspectRatio="xMidYMid meet" version="1.0"><defs><clipPath id="d3d14fd29c"><path d="M 81.03125 80.992188 L 728.96875 80.992188 L 728.96875 728.929688 L 81.03125 728.929688 Z M 81.03125 80.992188 " clip-rule="nonzero"></path></clipPath></defs><g clip-path="url(#d3d14fd29c)"><path fill="#881e81" d="M 405 80.992188 C 226.363281 80.992188 81.03125 226.324219 81.03125 404.960938 C 81.03125 583.597656 226.363281 728.929688 405 728.929688 C 583.636719 728.929688 728.96875 583.597656 728.96875 404.960938 C 728.96875 226.324219 583.636719 80.992188 405 80.992188 Z M 405 685.734375 C 250.175781 685.734375 124.226562 559.785156 124.226562 404.960938 C 124.226562 250.136719 250.175781 124.1875 405 124.1875 C 559.824219 124.1875 685.773438 250.136719 685.773438 404.960938 C 685.773438 559.785156 559.824219 685.734375 405 685.734375 Z M 405 685.734375 " fill-opacity="1" fill-rule="nonzero"></path></g><path fill="#881e81" d="M 518 383.363281 L 426.597656 383.363281 L 426.597656 291.960938 C 426.597656 280.035156 416.925781 270.363281 405 270.363281 C 393.074219 270.363281 383.402344 280.035156 383.402344 291.960938 L 383.402344 383.363281 L 292 383.363281 C 280.074219 383.363281 270.402344 393.03125 270.402344 404.960938 C 270.402344 416.886719 280.074219 426.558594 292 426.558594 L 383.402344 426.558594 L 383.402344 517.960938 C 383.402344 529.886719 393.074219 539.558594 405 539.558594 C 416.925781 539.558594 426.597656 529.886719 426.597656 517.960938 L 426.597656 426.558594 L 518 426.558594 C 529.925781 426.558594 539.597656 416.886719 539.597656 404.960938 C 539.597656 393.03125 529.925781 383.363281 518 383.363281 Z M 518 383.363281 " fill-opacity="1" fill-rule="nonzero"></path></svg>