<svg xmlns="http://www.w3.org/2000/svg" xmlns:xlink="http://www.w3.org/1999/xlink" width="1080" zoomAndPan="magnify" viewBox="0 0 810 817.92" height="1080" preserveAspectRatio="xMidYMid meet" version="1.0"><defs><clipPath id="5ddc00a101"><path d="M 93 80.992188 L 717 80.992188 L 717 728.929688 L 93 728.929688 Z M 93 80.992188 " clip-rule="nonzero"></path></clipPath></defs><g clip-path="url(#5ddc00a101)"><path fill="#881e81" d="M 422.144531 700.953125 C 429.621094 700.953125 435.679688 707.015625 435.679688 714.488281 C 435.679688 721.34375 430.585938 727.007812 423.980469 727.902344 L 422.144531 728.027344 L 386.046875 728.027344 C 378.570312 728.027344 372.511719 721.964844 372.511719 714.488281 C 372.511719 707.636719 377.601562 701.972656 384.210938 701.078125 L 386.046875 700.953125 Z M 458.242188 664.855469 C 465.714844 664.855469 471.777344 670.917969 471.777344 678.394531 C 471.777344 685.246094 466.683594 690.910156 460.078125 691.804688 L 458.242188 691.929688 L 349.949219 691.929688 C 342.472656 691.929688 336.414062 685.867188 336.414062 678.394531 C 336.414062 671.539062 341.507812 665.875 348.113281 664.980469 L 349.949219 664.855469 Z M 476.289062 628.761719 C 483.765625 628.761719 489.824219 634.820312 489.824219 642.296875 C 489.824219 649.148438 484.734375 654.8125 478.125 655.710938 L 476.289062 655.832031 L 331.902344 655.832031 C 324.425781 655.832031 318.367188 649.773438 318.367188 642.296875 C 318.367188 635.445312 323.457031 629.78125 330.066406 628.882812 L 331.902344 628.761719 Z M 404.09375 213.648438 C 501.28125 213.648438 580.066406 292.433594 580.066406 389.621094 C 580.066406 431.109375 555.328125 475.960938 506.886719 524.710938 C 496.878906 534.78125 490.894531 548.105469 489.964844 562.183594 L 489.835938 566.042969 L 489.828125 597.1875 C 489.820312 608.859375 480.945312 618.460938 469.570312 619.617188 L 467.265625 619.734375 L 340.925781 619.734375 C 329.246094 619.734375 319.636719 610.859375 318.480469 599.484375 L 318.367188 597.175781 L 318.363281 566.0625 C 318.363281 550.566406 312.234375 535.703125 301.3125 524.714844 C 252.863281 475.964844 228.125 431.113281 228.125 389.621094 C 228.125 292.433594 306.910156 213.648438 404.09375 213.648438 Z M 242.148438 536.433594 C 246.996094 541.28125 247.398438 548.886719 243.359375 554.191406 L 242.148438 555.578125 L 203.863281 593.863281 C 198.578125 599.148438 190.007812 599.148438 184.71875 593.863281 C 179.875 589.019531 179.46875 581.410156 183.507812 576.105469 L 184.71875 574.71875 L 223.007812 536.433594 C 228.292969 531.148438 236.863281 531.148438 242.148438 536.433594 Z M 585.339844 535.222656 L 586.726562 536.433594 L 625.011719 574.71875 C 630.300781 580.007812 630.300781 588.578125 625.011719 593.863281 C 620.167969 598.710938 612.5625 599.113281 607.257812 595.074219 L 605.871094 593.863281 L 567.582031 555.578125 C 562.296875 550.289062 562.296875 541.71875 567.582031 536.433594 C 572.429688 531.589844 580.035156 531.183594 585.339844 535.222656 Z M 404.09375 240.71875 C 321.859375 240.71875 255.195312 307.382812 255.195312 389.621094 C 255.195312 422.621094 276.625 461.46875 320.515625 505.628906 C 335.414062 520.621094 344.210938 540.542969 345.316406 561.542969 L 345.4375 566.058594 L 345.421875 592.664062 L 462.753906 592.664062 L 462.765625 566.035156 C 462.769531 546.417969 469.5 527.492188 481.679688 512.339844 L 484.585938 508.914062 L 487.683594 505.628906 C 531.570312 461.464844 552.996094 422.617188 552.996094 389.621094 C 552.996094 307.382812 486.332031 240.71875 404.09375 240.71875 Z M 161.214844 360.179688 C 168.6875 360.179688 174.75 366.242188 174.75 373.714844 C 174.75 380.570312 169.65625 386.234375 163.050781 387.128906 L 161.214844 387.253906 L 107.070312 387.253906 C 99.59375 387.253906 93.53125 381.191406 93.53125 373.714844 C 93.53125 366.863281 98.625 361.199219 105.230469 360.304688 L 107.070312 360.179688 Z M 702.664062 360.179688 C 710.140625 360.179688 716.199219 366.242188 716.199219 373.714844 C 716.199219 380.570312 711.109375 386.234375 704.5 387.128906 L 702.664062 387.253906 L 648.519531 387.253906 C 641.042969 387.253906 634.984375 381.191406 634.984375 373.714844 C 634.984375 366.863281 640.074219 361.199219 646.683594 360.304688 L 648.519531 360.179688 Z M 422.144531 267.792969 C 479.457031 267.792969 525.921875 314.253906 525.921875 371.570312 C 525.921875 379.046875 519.863281 385.105469 512.386719 385.105469 C 504.910156 385.105469 498.847656 379.046875 498.847656 371.570312 C 498.847656 329.207031 464.507812 294.867188 422.144531 294.867188 C 414.667969 294.867188 408.609375 288.804688 408.609375 281.328125 C 408.609375 273.851562 414.667969 267.792969 422.144531 267.792969 Z M 202.476562 152.359375 L 203.863281 153.570312 L 242.148438 191.855469 C 247.4375 197.144531 247.4375 205.714844 242.148438 211 C 237.304688 215.84375 229.699219 216.25 224.390625 212.210938 L 223.007812 211 L 184.71875 172.714844 C 179.433594 167.425781 179.433594 158.855469 184.71875 153.570312 C 189.566406 148.722656 197.171875 148.320312 202.476562 152.359375 Z M 625.011719 153.570312 C 629.859375 158.414062 630.261719 166.019531 626.226562 171.328125 L 625.011719 172.714844 L 586.726562 211 C 581.441406 216.285156 572.871094 216.285156 567.582031 211 C 562.738281 206.152344 562.335938 198.546875 566.371094 193.242188 L 567.582031 191.855469 L 605.871094 153.570312 C 611.15625 148.285156 619.726562 148.285156 625.011719 153.570312 Z M 404.867188 80.429688 C 411.71875 80.429688 417.382812 85.523438 418.277344 92.128906 L 418.402344 93.96875 L 418.402344 148.113281 C 418.402344 155.589844 412.34375 161.648438 404.867188 161.648438 C 398.015625 161.648438 392.351562 156.554688 391.453125 149.949219 L 391.332031 148.113281 L 391.332031 93.96875 C 391.332031 86.492188 397.390625 80.429688 404.867188 80.429688 Z M 404.867188 80.429688 " fill-opacity="1" fill-rule="nonzero"></path></g></svg>