<svg xmlns="http://www.w3.org/2000/svg" xmlns:xlink="http://www.w3.org/1999/xlink" width="1080" zoomAndPan="magnify" viewBox="0 0 810 817.92" height="1080" preserveAspectRatio="xMidYMid meet" version="1.0"><defs><clipPath id="d6da0a0107"><path d="M 93.179688 81 L 717 81 L 717 728.929688 L 93.179688 728.929688 Z M 93.179688 81 " clip-rule="nonzero"></path></clipPath></defs><g clip-path="url(#d6da0a0107)"><path fill="#881e81" d="M 503.25 415.414062 C 459.011719 415.414062 422.421875 381.890625 417.488281 338.890625 L 503.25 338.890625 C 508.675781 338.890625 513.117188 334.492188 513.117188 329.074219 L 513.117188 243.28125 C 556.117188 248.179688 589.667969 284.78125 589.667969 329.074219 C 589.667969 376.683594 550.941406 415.414062 503.25 415.414062 Z M 493.464844 243.269531 C 453.667969 247.789062 422.011719 279.464844 417.488281 319.253906 L 493.464844 319.253906 Z M 503.25 223.085938 C 444.871094 223.085938 397.261719 270.628906 397.261719 329.074219 C 397.261719 387.511719 444.871094 435.054688 503.25 435.054688 C 561.710938 435.054688 609.238281 387.511719 609.238281 329.074219 C 609.238281 270.628906 561.710938 223.085938 503.25 223.085938 Z M 346.035156 396.738281 C 346.035156 398.503906 344.558594 400.011719 342.746094 400.011719 L 317.257812 400.011719 L 317.257812 261.402344 C 317.257812 259.632812 318.820312 258.128906 320.546875 258.128906 L 342.746094 258.128906 C 344.554688 258.128906 346.035156 259.632812 346.035156 261.402344 Z M 268.910156 314.097656 C 268.910156 312.320312 270.390625 310.828125 272.199219 310.828125 L 297.6875 310.828125 L 297.6875 400.011719 L 268.910156 400.011719 Z M 220.480469 396.738281 L 220.480469 366.800781 C 220.480469 365.019531 222.042969 363.511719 223.769531 363.511719 L 249.257812 363.511719 L 249.257812 400.011719 L 223.769531 400.011719 C 222.042969 400.011719 220.480469 398.503906 220.480469 396.738281 Z M 342.746094 238.492188 L 320.546875 238.492188 C 307.886719 238.492188 297.6875 248.769531 297.6875 261.398438 L 297.6875 291.191406 L 272.199219 291.191406 C 259.535156 291.191406 249.257812 301.46875 249.257812 314.097656 L 249.257812 343.875 L 223.769531 343.875 C 211.105469 343.875 200.828125 354.164062 200.828125 366.796875 L 200.828125 396.734375 C 200.828125 409.367188 211.105469 419.640625 223.769531 419.640625 L 342.746094 419.640625 C 355.410156 419.640625 365.6875 409.367188 365.6875 396.734375 L 365.6875 261.398438 C 365.6875 248.769531 355.410156 238.492188 342.746094 238.492188 Z M 697.21875 543.148438 C 697.21875 546.746094 694.175781 549.796875 690.558594 549.796875 L 119.589844 549.796875 C 115.972656 549.796875 112.933594 546.746094 112.933594 543.148438 L 112.933594 520.230469 C 112.933594 516.613281 115.972656 513.578125 119.589844 513.578125 L 690.558594 513.578125 C 694.175781 513.578125 697.21875 516.613281 697.21875 520.230469 Z M 155.109375 180.203125 L 155.109375 493.941406 L 655.035156 493.941406 L 655.035156 180.203125 C 655.035156 171.382812 647.882812 164.195312 639.003906 164.195312 L 171.0625 164.195312 C 162.265625 164.195312 155.109375 171.382812 155.109375 180.203125 Z M 339.789062 106.953125 C 339.789062 103.5625 342.664062 100.695312 346.035156 100.695312 L 464.109375 100.695312 C 467.484375 100.695312 470.359375 103.5625 470.359375 106.953125 L 470.359375 144.558594 L 339.789062 144.558594 Z M 690.554688 493.941406 L 674.6875 493.941406 L 674.6875 180.203125 C 674.6875 160.542969 658.652344 144.558594 639.003906 144.558594 L 490.011719 144.558594 L 490.011719 106.953125 C 490.011719 92.675781 478.335938 81.0625 464.109375 81.0625 L 346.035156 81.0625 C 331.8125 81.0625 320.136719 92.671875 320.136719 106.953125 L 320.136719 144.558594 L 171.0625 144.558594 C 151.410156 144.558594 135.460938 160.542969 135.460938 180.203125 L 135.460938 493.941406 L 119.589844 493.941406 C 105.121094 493.941406 93.28125 505.734375 93.28125 520.226562 L 93.28125 543.148438 C 93.28125 557.636719 105.121094 569.429688 119.589844 569.429688 L 269.074219 569.429688 L 209.214844 715.472656 C 206.566406 721.941406 211.539062 729.007812 218.34375 729.007812 C 222.207031 729.007812 225.824219 726.71875 227.386719 722.910156 L 290.289062 569.429688 L 519.859375 569.429688 L 582.679688 722.910156 C 584.75 727.964844 590.515625 730.300781 595.507812 728.277344 C 600.523438 726.21875 602.90625 720.488281 600.851562 715.472656 L 541.074219 569.429688 L 690.558594 569.429688 C 705.03125 569.429688 716.871094 557.636719 716.871094 543.148438 L 716.871094 520.226562 C 716.867188 505.734375 705.027344 493.941406 690.554688 493.941406 Z M 690.554688 493.941406 " fill-opacity="1" fill-rule="evenodd"></path></g></svg>