<svg xmlns="http://www.w3.org/2000/svg" xmlns:xlink="http://www.w3.org/1999/xlink" width="1080" zoomAndPan="magnify" viewBox="0 0 810 817.92" height="1080" preserveAspectRatio="xMidYMid meet" version="1.0"><defs><clipPath id="ca1dd115b0"><path d="M 119 80.992188 L 690.921875 80.992188 L 690.921875 728.929688 L 119 728.929688 Z M 119 80.992188 " clip-rule="nonzero"></path></clipPath></defs><g clip-path="url(#ca1dd115b0)"><path fill="#881e81" d="M 386.667969 193.113281 C 422.246094 215.753906 447.042969 253.488281 451.355469 296.613281 C 465.371094 303.082031 481.542969 307.390625 498.792969 307.390625 C 561.320312 307.390625 611.992188 256.722656 611.992188 194.191406 C 611.992188 131.664062 561.320312 80.992188 498.792969 80.992188 C 437.339844 82.070312 386.667969 131.664062 386.667969 193.113281 Z M 312.28125 423.828125 C 374.808594 423.828125 425.480469 373.15625 425.480469 310.625 C 425.480469 248.097656 374.808594 197.425781 312.28125 197.425781 C 249.75 197.425781 199.078125 248.097656 199.078125 310.625 C 199.078125 373.15625 249.75 423.828125 312.28125 423.828125 Z M 359.714844 431.375 L 263.765625 431.375 C 183.988281 431.375 119.300781 496.058594 119.300781 575.839844 L 119.300781 695.507812 L 126.847656 697.664062 C 202.3125 721.382812 269.15625 728.929688 323.0625 728.929688 C 428.714844 728.929688 490.167969 698.742188 494.480469 696.585938 L 502.027344 692.273438 L 503.105469 692.273438 L 503.105469 575.839844 C 504.183594 496.058594 439.496094 431.375 359.714844 431.375 Z M 546.226562 314.9375 L 451.355469 314.9375 C 450.277344 352.671875 434.105469 387.171875 408.230469 411.96875 C 479.386719 433.53125 531.132812 498.214844 531.132812 575.839844 L 531.132812 611.417969 C 624.929688 608.183594 678.832031 581.230469 682.066406 580.152344 L 689.613281 575.839844 L 690.691406 575.839844 L 690.691406 459.40625 C 690.691406 379.625 626.007812 314.9375 546.226562 314.9375 Z M 546.226562 314.9375 " fill-opacity="1" fill-rule="nonzero"></path></g></svg>