<svg xmlns="http://www.w3.org/2000/svg" xmlns:xlink="http://www.w3.org/1999/xlink" width="1080" zoomAndPan="magnify" viewBox="0 0 810 817.92" height="1080" preserveAspectRatio="xMidYMid meet" version="1.0"><defs><clipPath id="57ad0e68a3"><path d="M 78 134 L 714 134 L 714 693.332031 L 78 693.332031 Z M 78 134 " clip-rule="nonzero"></path></clipPath></defs><g clip-path="url(#57ad0e68a3)"><path fill="#881e81" d="M 396.203125 694.53125 C 388.804688 694.53125 381.683594 691.597656 376.515625 686.292969 L 130.78125 440.699219 C 96.996094 406.910156 78.285156 361.953125 78.285156 314.0625 C 78.285156 266.171875 96.996094 221.214844 130.78125 187.285156 C 200.734375 117.335938 314.382812 117.335938 384.335938 187.285156 L 396.203125 199.15625 L 407.929688 187.285156 C 477.882812 117.476562 591.53125 117.335938 661.484375 187.285156 C 731.433594 257.238281 731.433594 370.886719 661.484375 440.839844 L 415.890625 686.433594 C 410.722656 691.597656 403.601562 694.53125 396.203125 694.53125 Z M 257.558594 190.636719 C 226.003906 190.636719 194.3125 202.644531 170.296875 226.660156 C 146.980469 249.976562 134.132812 280.972656 134.132812 314.0625 C 134.132812 347.011719 146.980469 378.007812 170.296875 401.324219 L 396.203125 627.234375 L 622.109375 401.324219 C 670.277344 353.15625 670.277344 274.828125 622.109375 226.800781 C 573.941406 178.628906 495.613281 178.628906 447.582031 226.800781 L 420.636719 253.46875 C 415.332031 258.773438 408.351562 261.703125 400.808594 261.703125 L 391.316406 261.703125 C 383.917969 261.703125 376.796875 258.773438 371.628906 253.46875 L 344.820312 226.660156 C 320.808594 202.644531 289.113281 190.636719 257.558594 190.636719 Z M 257.558594 190.636719 " fill-opacity="1" fill-rule="nonzero"></path></g></svg>