<svg xmlns="http://www.w3.org/2000/svg" xmlns:xlink="http://www.w3.org/1999/xlink" width="1080" zoomAndPan="magnify" viewBox="0 0 810 809.999993" height="1080" preserveAspectRatio="xMidYMid meet" version="1.0"><path fill="#881e81" d="M 680.746094 81 L 129.253906 81 C 127.675781 81 126.097656 81.078125 124.527344 81.230469 C 122.953125 81.386719 121.390625 81.617188 119.839844 81.925781 C 118.292969 82.234375 116.761719 82.617188 115.246094 83.078125 C 113.734375 83.535156 112.25 84.070312 110.789062 84.671875 C 109.328125 85.277344 107.902344 85.953125 106.507812 86.699219 C 105.113281 87.441406 103.761719 88.253906 102.445312 89.132812 C 101.132812 90.011719 99.863281 90.949219 98.640625 91.953125 C 97.421875 92.957031 96.25 94.015625 95.132812 95.132812 C 94.015625 96.25 92.957031 97.421875 91.953125 98.640625 C 90.949219 99.863281 90.011719 101.132812 89.132812 102.445312 C 88.253906 103.761719 87.441406 105.113281 86.699219 106.507812 C 85.953125 107.902344 85.277344 109.328125 84.671875 110.789062 C 84.070312 112.25 83.535156 113.734375 83.078125 115.246094 C 82.617188 116.761719 82.234375 118.292969 81.925781 119.839844 C 81.617188 121.390625 81.386719 122.953125 81.230469 124.527344 C 81.078125 126.097656 81 127.675781 81 129.253906 L 81 549.765625 C 81 551.347656 81.078125 552.921875 81.230469 554.496094 C 81.386719 556.070312 81.617188 557.628906 81.925781 559.179688 C 82.234375 560.730469 82.617188 562.261719 83.078125 563.773438 C 83.535156 565.285156 84.070312 566.773438 84.671875 568.234375 C 85.277344 569.691406 85.953125 571.121094 86.699219 572.511719 C 87.441406 573.90625 88.253906 575.261719 89.132812 576.574219 C 90.011719 577.890625 90.949219 579.15625 91.953125 580.378906 C 92.957031 581.601562 94.015625 582.769531 95.132812 583.886719 C 96.25 585.003906 97.421875 586.066406 98.640625 587.066406 C 99.863281 588.070312 101.132812 589.011719 102.445312 589.886719 C 103.761719 590.765625 105.113281 591.578125 106.507812 592.324219 C 107.902344 593.066406 109.328125 593.742188 110.789062 594.347656 C 112.25 594.953125 113.734375 595.484375 115.246094 595.945312 C 116.761719 596.402344 118.292969 596.785156 119.839844 597.09375 C 121.390625 597.402344 122.953125 597.632812 124.527344 597.789062 C 126.097656 597.945312 127.675781 598.019531 129.253906 598.019531 L 308.488281 598.019531 L 308.488281 641.726562 L 298.425781 641.726562 C 296.84375 641.726562 295.269531 641.804688 293.695312 641.960938 C 292.121094 642.113281 290.5625 642.34375 289.011719 642.652344 C 287.460938 642.960938 285.929688 643.347656 284.417969 643.804688 C 282.90625 644.261719 281.417969 644.796875 279.957031 645.398438 C 278.5 646.003906 277.070312 646.679688 275.675781 647.425781 C 274.285156 648.167969 272.929688 648.980469 271.617188 649.859375 C 270.300781 650.738281 269.035156 651.675781 267.8125 652.679688 C 266.589844 653.683594 265.421875 654.742188 264.304688 655.859375 C 263.183594 656.976562 262.125 658.148438 261.121094 659.371094 C 260.121094 660.589844 259.179688 661.859375 258.300781 663.171875 C 257.421875 664.488281 256.613281 665.839844 255.867188 667.234375 C 255.121094 668.628906 254.449219 670.054688 253.84375 671.515625 C 253.238281 672.976562 252.707031 674.460938 252.246094 675.972656 C 251.789062 677.488281 251.40625 679.019531 251.097656 680.566406 C 250.789062 682.117188 250.554688 683.679688 250.402344 685.253906 C 250.246094 686.824219 250.167969 688.402344 250.167969 689.980469 L 250.167969 729 L 559.832031 729 L 559.832031 690.121094 C 559.832031 688.539062 559.753906 686.964844 559.597656 685.390625 C 559.441406 683.816406 559.210938 682.257812 558.902344 680.707031 C 558.59375 679.15625 558.210938 677.625 557.753906 676.113281 C 557.292969 674.601562 556.761719 673.113281 556.15625 671.652344 C 555.550781 670.191406 554.878906 668.765625 554.132812 667.371094 C 553.386719 665.980469 552.574219 664.625 551.699219 663.3125 C 550.820312 661.996094 549.878906 660.730469 548.878906 659.507812 C 547.875 658.285156 546.8125 657.117188 545.695312 656 C 544.578125 654.878906 543.410156 653.820312 542.1875 652.816406 C 540.964844 651.816406 539.699219 650.875 538.382812 649.996094 C 537.070312 649.117188 535.714844 648.308594 534.324219 647.5625 C 532.929688 646.816406 531.5 646.144531 530.042969 645.539062 C 528.582031 644.933594 527.09375 644.402344 525.582031 643.941406 C 524.070312 643.484375 522.539062 643.101562 520.988281 642.792969 C 519.4375 642.484375 517.878906 642.253906 516.304688 642.097656 C 514.730469 641.941406 513.15625 641.863281 511.574219 641.863281 L 501.511719 641.863281 L 501.511719 598.019531 L 680.746094 598.019531 C 682.324219 598.019531 683.902344 597.945312 685.472656 597.789062 C 687.046875 597.632812 688.609375 597.402344 690.160156 597.09375 C 691.707031 596.785156 693.238281 596.402344 694.753906 595.945312 C 696.265625 595.484375 697.75 594.953125 699.210938 594.347656 C 700.671875 593.742188 702.097656 593.066406 703.492188 592.324219 C 704.886719 591.578125 706.238281 590.765625 707.554688 589.886719 C 708.867188 589.011719 710.136719 588.070312 711.359375 587.066406 C 712.578125 586.066406 713.75 585.003906 714.867188 583.886719 C 715.984375 582.769531 717.042969 581.601562 718.046875 580.378906 C 719.050781 579.15625 719.988281 577.890625 720.867188 576.574219 C 721.746094 575.261719 722.558594 573.90625 723.300781 572.511719 C 724.046875 571.121094 724.722656 569.691406 725.328125 568.234375 C 725.929688 566.773438 726.464844 565.285156 726.921875 563.773438 C 727.378906 562.261719 727.765625 560.730469 728.074219 559.179688 C 728.382812 557.628906 728.613281 556.070312 728.769531 554.496094 C 728.921875 552.921875 729 551.347656 729 549.765625 L 729 129.253906 C 729 127.675781 728.921875 126.097656 728.769531 124.527344 C 728.613281 122.953125 728.382812 121.390625 728.074219 119.839844 C 727.765625 118.292969 727.378906 116.761719 726.921875 115.246094 C 726.464844 113.734375 725.929688 112.25 725.328125 110.789062 C 724.722656 109.328125 724.046875 107.902344 723.300781 106.507812 C 722.558594 105.113281 721.746094 103.761719 720.867188 102.445312 C 719.988281 101.132812 719.050781 99.863281 718.046875 98.640625 C 717.042969 97.421875 715.984375 96.25 714.867188 95.132812 C 713.75 94.015625 712.578125 92.957031 711.359375 91.953125 C 710.136719 90.949219 708.867188 90.011719 707.554688 89.132812 C 706.238281 88.253906 704.886719 87.441406 703.492188 86.699219 C 702.097656 85.953125 700.671875 85.277344 699.210938 84.671875 C 697.75 84.070312 696.265625 83.535156 694.753906 83.078125 C 693.238281 82.617188 691.707031 82.234375 690.160156 81.925781 C 688.609375 81.617188 687.046875 81.386719 685.472656 81.230469 C 683.902344 81.078125 682.324219 81 680.746094 81 Z M 129.253906 108.574219 L 680.746094 108.574219 C 681.421875 108.574219 682.097656 108.609375 682.773438 108.675781 C 683.445312 108.742188 684.113281 108.839844 684.777344 108.972656 C 685.445312 109.105469 686.101562 109.269531 686.746094 109.464844 C 687.394531 109.660156 688.03125 109.890625 688.660156 110.148438 C 689.285156 110.40625 689.894531 110.695312 690.492188 111.015625 C 691.089844 111.335938 691.671875 111.683594 692.234375 112.058594 C 692.796875 112.4375 693.339844 112.839844 693.863281 113.269531 C 694.386719 113.699219 694.890625 114.152344 695.367188 114.632812 C 695.847656 115.109375 696.300781 115.613281 696.730469 116.136719 C 697.160156 116.660156 697.5625 117.203125 697.941406 117.765625 C 698.316406 118.328125 698.664062 118.910156 698.984375 119.507812 C 699.304688 120.105469 699.59375 120.714844 699.851562 121.339844 C 700.109375 121.96875 700.339844 122.605469 700.535156 123.253906 C 700.730469 123.898438 700.894531 124.554688 701.027344 125.21875 C 701.160156 125.886719 701.257812 126.554688 701.324219 127.226562 C 701.390625 127.902344 701.425781 128.578125 701.425781 129.253906 L 701.425781 503.511719 L 108.574219 503.511719 L 108.574219 129.253906 C 108.574219 128.578125 108.609375 127.902344 108.675781 127.226562 C 108.742188 126.554688 108.839844 125.886719 108.972656 125.21875 C 109.105469 124.554688 109.269531 123.898438 109.464844 123.253906 C 109.660156 122.605469 109.890625 121.96875 110.148438 121.339844 C 110.40625 120.714844 110.695312 120.105469 111.015625 119.507812 C 111.335938 118.910156 111.683594 118.328125 112.058594 117.765625 C 112.4375 117.203125 112.839844 116.660156 113.269531 116.136719 C 113.699219 115.613281 114.152344 115.109375 114.632812 114.632812 C 115.109375 114.152344 115.613281 113.699219 116.136719 113.269531 C 116.660156 112.839844 117.203125 112.4375 117.765625 112.058594 C 118.328125 111.683594 118.910156 111.335938 119.507812 111.015625 C 120.105469 110.695312 120.714844 110.40625 121.339844 110.148438 C 121.96875 109.890625 122.605469 109.660156 123.253906 109.464844 C 123.898438 109.269531 124.554688 109.105469 125.21875 108.972656 C 125.886719 108.839844 126.554688 108.742188 127.226562 108.675781 C 127.902344 108.609375 128.578125 108.574219 129.253906 108.574219 Z M 511.574219 669.4375 C 512.253906 669.4375 512.929688 669.472656 513.601562 669.539062 C 514.277344 669.605469 514.945312 669.703125 515.609375 669.835938 C 516.273438 669.96875 516.929688 670.132812 517.578125 670.328125 C 518.226562 670.527344 518.863281 670.753906 519.488281 671.011719 C 520.113281 671.273438 520.726562 671.5625 521.324219 671.882812 C 521.921875 672.199219 522.5 672.546875 523.066406 672.925781 C 523.628906 673.300781 524.171875 673.703125 524.695312 674.132812 C 525.21875 674.5625 525.71875 675.015625 526.199219 675.496094 C 526.679688 675.976562 527.132812 676.476562 527.5625 677 C 527.992188 677.523438 528.394531 678.066406 528.769531 678.628906 C 529.148438 679.195312 529.496094 679.773438 529.8125 680.371094 C 530.132812 680.96875 530.421875 681.578125 530.683594 682.207031 C 530.941406 682.832031 531.167969 683.46875 531.367188 684.117188 C 531.5625 684.765625 531.726562 685.421875 531.859375 686.085938 C 531.992188 686.75 532.089844 687.417969 532.15625 688.09375 C 532.222656 688.765625 532.257812 689.441406 532.257812 690.121094 L 532.257812 701.425781 L 277.742188 701.425781 L 277.742188 690.121094 C 277.742188 689.441406 277.777344 688.765625 277.84375 688.09375 C 277.910156 687.417969 278.007812 686.75 278.140625 686.085938 C 278.273438 685.421875 278.4375 684.765625 278.632812 684.117188 C 278.832031 683.46875 279.058594 682.832031 279.316406 682.207031 C 279.578125 681.578125 279.867188 680.96875 280.1875 680.371094 C 280.503906 679.773438 280.851562 679.195312 281.230469 678.628906 C 281.605469 678.066406 282.007812 677.523438 282.4375 677 C 282.867188 676.476562 283.320312 675.976562 283.800781 675.496094 C 284.28125 675.015625 284.78125 674.5625 285.304688 674.132812 C 285.828125 673.703125 286.371094 673.300781 286.933594 672.925781 C 287.5 672.546875 288.078125 672.199219 288.675781 671.882812 C 289.273438 671.5625 289.882812 671.273438 290.511719 671.011719 C 291.136719 670.753906 291.773438 670.527344 292.421875 670.328125 C 293.070312 670.132812 293.726562 669.96875 294.390625 669.835938 C 295.054688 669.703125 295.722656 669.605469 296.398438 669.539062 C 297.070312 669.472656 297.746094 669.4375 298.425781 669.4375 Z M 473.96875 641.863281 L 336.0625 641.863281 L 336.0625 598.019531 L 473.9375 598.019531 Z M 680.746094 570.445312 L 129.253906 570.445312 C 128.578125 570.445312 127.902344 570.414062 127.226562 570.347656 C 126.554688 570.28125 125.886719 570.179688 125.21875 570.050781 C 124.554688 569.917969 123.898438 569.753906 123.253906 569.554688 C 122.605469 569.359375 121.96875 569.132812 121.339844 568.871094 C 120.714844 568.613281 120.105469 568.324219 119.507812 568.003906 C 118.910156 567.683594 118.328125 567.335938 117.765625 566.960938 C 117.203125 566.585938 116.660156 566.183594 116.136719 565.753906 C 115.613281 565.324219 115.109375 564.867188 114.632812 564.390625 C 114.152344 563.910156 113.699219 563.410156 113.269531 562.886719 C 112.839844 562.363281 112.4375 561.820312 112.058594 561.253906 C 111.683594 560.691406 111.335938 560.113281 111.015625 559.515625 C 110.695312 558.917969 110.40625 558.304688 110.148438 557.679688 C 109.890625 557.054688 109.660156 556.417969 109.464844 555.769531 C 109.269531 555.121094 109.105469 554.464844 108.972656 553.800781 C 108.839844 553.136719 108.742188 552.46875 108.675781 551.792969 C 108.609375 551.117188 108.574219 550.441406 108.574219 549.765625 L 108.574219 530.945312 L 701.425781 530.945312 L 701.425781 549.765625 C 701.425781 550.441406 701.390625 551.117188 701.324219 551.792969 C 701.257812 552.46875 701.160156 553.136719 701.027344 553.800781 C 700.894531 554.464844 700.730469 555.121094 700.535156 555.769531 C 700.339844 556.417969 700.109375 557.054688 699.851562 557.679688 C 699.59375 558.304688 699.304688 558.917969 698.984375 559.515625 C 698.664062 560.113281 698.316406 560.691406 697.941406 561.253906 C 697.5625 561.820312 697.160156 562.363281 696.730469 562.886719 C 696.300781 563.410156 695.847656 563.910156 695.367188 564.390625 C 694.890625 564.867188 694.386719 565.324219 693.863281 565.753906 C 693.339844 566.183594 692.796875 566.585938 692.234375 566.960938 C 691.671875 567.335938 691.089844 567.6875 690.492188 568.003906 C 689.894531 568.324219 689.285156 568.613281 688.660156 568.871094 C 688.03125 569.132812 687.394531 569.359375 686.746094 569.554688 C 686.101562 569.753906 685.445312 569.917969 684.777344 570.050781 C 684.113281 570.179688 683.445312 570.28125 682.773438 570.347656 C 682.097656 570.414062 681.421875 570.445312 680.746094 570.445312 Z M 680.746094 570.445312 " fill-opacity="1" fill-rule="nonzero"></path></svg>